<svg id="Capa_1" enable-background="new 0 0 497 497" height="512" viewBox="0 0 497 497" width="512"
     xmlns="http://www.w3.org/2000/svg">
    <g>
        <path d="m80.099 139.564c-11.252 0-20.374-9.122-20.374-20.374v-35.99c0-11.252 9.122-20.374 20.374-20.374 11.252 0 20.374 9.122 20.374 20.374v35.99c0 11.252-9.122 20.374-20.374 20.374z"
              fill="#537983"/>
        <path d="m80.099 62.826c-3.715 0-7.187 1.01-10.185 2.747 6.085 3.524 10.188 10.089 10.188 17.627v35.99c0 7.537-4.104 14.103-10.188 17.627 2.999 1.737 6.471 2.747 10.185 2.747 11.252 0 20.374-9.122 20.374-20.374v-35.99c0-11.253-9.122-20.374-20.374-20.374z"
              fill="#3e5959"/>
        <path d="m416.492 139.564c-11.252 0-20.374-9.122-20.374-20.374v-35.99c0-11.252 9.122-20.374 20.374-20.374 11.252 0 20.374 9.122 20.374 20.374v35.99c0 11.252-9.122 20.374-20.374 20.374z"
              fill="#537983"/>
        <path d="m416.492 62.826c-3.715 0-7.187 1.01-10.186 2.747 6.085 3.524 10.188 10.089 10.188 17.627v35.99c0 7.537-4.104 14.103-10.188 17.627 2.999 1.737 6.471 2.747 10.186 2.747 11.252 0 20.374-9.122 20.374-20.374v-35.99c0-11.253-9.122-20.374-20.374-20.374z"
              fill="#3e5959"/>
        <path d="m481.5 400.236h-466v-269.559c0-9.466 7.674-17.14 17.14-17.14h431.72c9.466 0 17.14 7.674 17.14 17.14z"
              fill="#0ed290"/>
        <path d="m464.36 113.537h-26.087c9.466 0 17.14 7.674 17.14 17.14v269.56h26.087v-269.56c0-9.466-7.674-17.14-17.14-17.14z"
              fill="#00c285"/>
        <path d="m481.5 408.336h-130.016v-34.222c0-7.803 6.326-14.129 14.129-14.129h101.757c7.803 0 14.129 6.326 14.129 14.129v34.222z"
              fill="#6c7fd8"/>
        <path d="m467.371 359.985h-26.087c7.803 0 14.129 6.326 14.129 14.129v34.222h26.087v-34.222c0-7.803-6.326-14.129-14.129-14.129z"
              fill="#4f66d0"/>
        <path d="m488.997 397.349h-480.994c-4.42 0-8.003 3.583-8.003 8.003v20.82c0 4.42 3.583 8.003 8.003 8.003h480.995c4.42 0 8.003-3.583 8.003-8.003v-20.82c-.001-4.42-3.584-8.003-8.004-8.003z"
              fill="#ffcebf"/>
        <path d="m454.872 397.349c4.815 0 8.718 3.903 8.718 8.718v19.39c0 4.815-3.903 8.718-8.718 8.718h34.125c4.42 0 8.003-3.583 8.003-8.003v-20.82c0-4.42-3.583-8.003-8.003-8.003z"
              fill="#ffb09e"/>
        <g fill="#e2f1fe">
            <path d="m338.918 220.864c-3.916-1.354-8.186.724-9.538 4.638l-14.512 41.974-14.898-42.03c-1.384-3.904-5.67-5.948-9.575-4.563-3.904 1.384-5.947 5.67-4.563 9.575l21.179 59.747-7.735 22.374c-1.354 3.915.723 8.186 4.638 9.539 2.93.931 7.384.086 9.538-4.638l30.105-87.078c1.352-3.914-.724-8.185-4.639-9.538z"/>
            <path d="m140.531 255.475 17.348-23.008c2.494-3.307 1.834-8.01-1.473-10.503-3.309-2.496-8.012-1.834-10.504 1.473l-14.795 19.622-14.905-19.64c-2.504-3.299-7.209-3.945-10.509-1.44-3.3 2.504-3.944 7.208-1.44 10.508l17.469 23.019-19.693 26.118c-2.494 3.307-1.834 8.01 1.473 10.503 2.098 1.646 7.044 2.511 10.504-1.473l17.14-22.731 18.05 23.783c2.381 2.163 5.205 4.561 10.509 1.44 3.3-2.504 3.944-7.208 1.44-10.508z"/>
            <path d="m247.088 250.961h-15.279v-15.279c0-4.142-3.357-7.5-7.5-7.5s-7.5 3.358-7.5 7.5v15.279h-15.826c-4.143 0-7.5 3.358-7.5 7.5s3.357 7.5 7.5 7.5h15.826v15.827c0 4.142 3.357 7.5 7.5 7.5s7.5-3.358 7.5-7.5v-15.827h15.279c4.143 0 7.5-3.358 7.5-7.5s-3.358-7.5-7.5-7.5z"/>
            <path d="m64.99 216.269c-3.843-1.537-8.211.332-9.749 4.179-.493 1.234-11.947 30.713-.283 74.463.916 2.837 4.536 6.589 9.179 5.315 4.003-1.067 6.382-5.177 5.315-9.179-10.275-38.54-.424-64.666-.273-65.054 1.519-3.84-.352-8.189-4.189-9.724z"/>
            <path d="m379.496 214.147c-3.846 1.538-5.717 5.903-4.179 9.749.103.256 10.111 26.038-.283 65.029-1.066 4.002 1.313 8.112 5.315 9.179 3.065.823 7.591-.685 9.179-5.315 11.663-43.75.21-73.229-.283-74.463-1.538-3.846-5.903-5.716-9.749-4.179z"/>
            <path d="m439.756 206.825c-.032 0-.064 0-.096 0-4.027.051-8.259.088-12.09.106 2.665-3.611 6.076-8.327 10.377-14.471 3.459-5.312 6.839-10.979 7.113-17.537 0-11.437-9.305-20.742-20.742-20.742-9.889 0-18.448 7.036-20.353 16.729-.799 4.064 1.85 8.007 5.914 8.805 4.068.798 8.006-1.849 8.805-5.914.526-2.677 2.896-4.621 5.634-4.621 3.038 0 5.533 2.373 5.729 5.362l-.129 1.009c-.442 1.69-1.548 4.43-4.261 8.307-8.178 11.684-13.056 18.071-15.676 21.502-3.374 4.417-5.232 6.851-3.985 10.907.734 2.385 2.608 4.289 5.014 5.09.999.333 1.798.599 11.997.599 3.986 0 9.409-.041 16.84-.134 4.143-.052 7.458-3.452 7.405-7.594-.05-4.107-3.398-7.403-7.496-7.403z"/>
        </g>
    </g>
</svg>