<svg height="512pt" viewBox="0 0 512 512" width="512pt" xmlns="http://www.w3.org/2000/svg">
    <path d="m206.191406 379.859375h99.617188v91.511719h-99.617188zm0 0" fill="#e9efff"/>
    <path d="m255.730469 379.859375h50.078125v91.511719h-50.078125zm0 0" fill="#d0cef0"/>
    <path d="m363.289062 476.691406c0 19.46875-15.839843 35.308594-35.308593 35.308594h-143.960938c-19.46875 0-35.308593-15.839844-35.308593-35.308594 0-19.480468 15.839843-35.320312 35.308593-35.320312h143.960938c19.46875 0 35.308593 15.839844 35.308593 35.320312zm0 0"
          fill="#d0cef0"/>
    <path d="m512 62.800781v284.257813c0 34.632812-28.171875 62.800781-62.800781 62.800781h-386.398438c-34.628906 0-62.800781-28.167969-62.800781-62.800781v-284.257813c0-34.628906 28.171875-62.800781 62.800781-62.800781h386.398438c34.628906 0 62.800781 28.171875 62.800781 62.800781zm0 0"
          fill="#00429b"/>
    <path d="m512 62.800781v284.257813c0 34.632812-28.171875 62.800781-62.800781 62.800781h-193.46875v-409.859375h193.46875c34.628906 0 62.800781 28.171875 62.800781 62.800781zm0 0"
          fill="#002659"/>
    <g fill="#65e86d">
        <path d="m256 188.351562h-.269531c-24.539063.148438-44.460938 20.160157-44.460938 44.726563v16.183594c0 24.578125 19.921875 44.578125 44.460938 44.726562h.269531c24.660156 0 44.730469-20.058593 44.730469-44.726562v-16.183594c0-24.65625-20.070313-44.726563-44.730469-44.726563zm14.730469 60.910157c0 8.128906-6.609375 14.726562-14.730469 14.726562-.089844 0-.179688 0-.269531-.007812-8-.140625-14.460938-6.679688-14.460938-14.71875v-16.183594c0-8.027344 6.460938-14.578125 14.460938-14.71875.089843-.007813.179687-.007813.269531-.007813 8.121094 0 14.730469 6.609376 14.730469 14.726563zm0 0"/>
        <path d="m271 79.070312v75.648438c0 8.28125-6.71875 15-15 15-.089844 0-.179688 0-.269531-.007812-8.160157-.140626-14.730469-6.800782-14.730469-14.992188v-75.648438c0-8.191406 6.570312-14.851562 14.730469-14.992187.089843-.007813.179687-.007813.269531-.007813 8.28125 0 15 6.71875 15 15zm0 0"/>
        <path d="m166 64.074219c-24.664062 0-44.730469 20.066406-44.730469 44.730469v16.179687c0 24.664063 20.066407 44.730469 44.730469 44.730469s44.730469-20.066406 44.730469-44.730469v-16.179687c0-24.664063-20.066407-44.730469-44.730469-44.730469zm14.730469 60.910156c0 8.125-6.609375 14.730469-14.730469 14.730469s-14.730469-6.605469-14.730469-14.730469v-16.179687c0-8.121094 6.609375-14.730469 14.730469-14.730469s14.730469 6.609375 14.730469 14.730469zm0 0"/>
        <path d="m166 188.351562c-8.285156 0-15 6.71875-15 15v75.644532c0 8.28125 6.714844 15 15 15s15-6.71875 15-15v-75.644532c0-8.285156-6.714844-15-15-15zm0 0"/>
    </g>
    <path d="m345.460938 64.074219c-24.664063 0-44.730469 20.066406-44.730469 44.730469v16.179687c0 24.664063 20.066406 44.730469 44.730469 44.730469 24.664062 0 44.726562-20.066406 44.726562-44.730469v-16.179687c0-24.664063-20.0625-44.730469-44.726562-44.730469zm14.726562 60.910156c0 8.125-6.605469 14.730469-14.726562 14.730469-8.121094 0-14.730469-6.605469-14.730469-14.730469v-16.179687c0-8.121094 6.609375-14.730469 14.730469-14.730469 8.121093 0 14.730468 6.609375 14.730468 14.730469v16.179687zm0 0"
          fill="#00b353"/>
    <path d="m345.460938 188.351562c-8.285157 0-15 6.71875-15 15v75.644532c0 8.28125 6.714843 15 15 15 8.28125 0 15-6.71875 15-15v-75.644532c0-8.285156-6.71875-15-15-15zm0 0"
          fill="#00b353"/>
    <path d="m405.460938 188.066406c-8.285157 0-15 6.714844-15 15v75.640625c0 8.285157 6.714843 15 15 15 8.28125 0 15-6.714843 15-15v-75.640625c0-8.285156-6.71875-15-15-15zm0 0"
          fill="#00b353"/>
    <path d="m435.460938 64.074219c-8.285157 0-15 6.714843-15 15v75.640625c0 8.285156 6.714843 15 15 15 8.28125 0 15-6.714844 15-15v-75.640625c0-8.285157-6.71875-15-15-15zm0 0"
          fill="#00b353"/>
    <path d="m91 79.074219c0-8.285157-6.714844-15-15-15s-15 6.714843-15 15v75.640625c0 8.285156 6.714844 15 15 15s15-6.714844 15-15zm0 0"
          fill="#65e86d"/>
    <path d="m106 188.066406c-8.285156 0-15 6.714844-15 15v75.640625c0 8.285157 6.714844 15 15 15s15-6.714843 15-15v-75.640625c0-8.285156-6.714844-15-15-15zm0 0"
          fill="#65e86d"/>
    <path d="m360.460938 351.011719c0 8.277343-6.722657 15-15 15h-179.460938c-8.28125 0-15-6.722657-15-15 0-8.292969 6.71875-15 15-15h179.460938c8.277343 0 15 6.707031 15 15zm0 0"
          fill="#fff"/>
    <path d="m256 169.71875c-.089844 0-.179688 0-.269531-.007812v-105.632813c.089843-.007813.179687-.007813.269531-.007813 8.28125 0 15 6.71875 15 15v75.648438c0 8.28125-6.71875 15-15 15zm0 0"
          fill="#00b353"/>
    <path d="m300.730469 233.078125v16.183594c0 24.667969-20.070313 44.726562-44.730469 44.726562h-.269531v-30.007812c.089843.007812.179687.007812.269531.007812 8.121094 0 14.730469-6.597656 14.730469-14.726562v-16.183594c0-8.117187-6.609375-14.726563-14.730469-14.726563-.089844 0-.179688 0-.269531.007813v-30.007813h.269531c24.660156 0 44.730469 20.070313 44.730469 44.726563zm0 0"
          fill="#00b353"/>
    <path d="m360.460938 351.011719c0 8.277343-6.722657 15-15 15h-89.730469v-30h89.730469c8.277343 0 15 6.707031 15 15zm0 0"
          fill="#e9efff"/>
    <path d="m363.289062 476.691406c0 19.46875-15.839843 35.308594-35.308593 35.308594h-72.25v-70.628906h72.25c19.46875 0 35.308593 15.839844 35.308593 35.320312zm0 0"
          fill="#b6b4e8"/>
</svg>