<svg width="512" height="512" xmlns="http://www.w3.org/2000/svg">
    <!-- Created with Method Draw - http://github.com/duopixel/Method-Draw/ -->
    <defs>
        <linearGradient y2="0" x2="1" y1="1" x1="0" id="svg_1">
            <stop offset="0" stop-opacity="0.99609" stop-color="#47f870"/>
            <stop offset="1" stop-opacity="0.99609" stop-color="#9138f6"/>
        </linearGradient>
    </defs>
    <g>
        <title>background</title>
        <rect fill="url(#svg_1)" id="canvas_background" height="514" width="514" y="-1" x="-1"/>
        <g display="none" overflow="visible" y="0" x="0" height="100%" width="100%" id="canvasGrid">
            <rect fill="url(#gridpattern)" stroke-width="0" y="0" x="0" height="100%" width="100%"/>
        </g>
    </g>
    <g>
        <title>Layer 1</title>
        <g stroke="null" id="svg_43">
            <g stroke="null"
               transform="matrix(0.9269093098615372,0,0,0.9997809769182112,-1568.2722488132433,-2477.816999572159) "
               id="svg_6">
                <path stroke="null" id="svg_7" fill="#ffb1a0"
                      d="m2064.75095,2658.52186c-1.65,4.648 -4.917,6.577 -9.38,8.983c-4.532,2.444 -11.244,4.692 -15.99,6.763l0,34.558c0,0.653 -0.032,1.298 -0.049,1.946c18.873,2.007 36.572,-11.814 36.572,-28.711c-0.001,-9.155 -4.277,-17.886 -11.153,-23.539z"/>
                <path stroke="null" id="svg_8" fill="#ffa68e"
                      d="m2061.26795,2663.71486c-1.609,1.429 -3.592,2.547 -5.897,3.79c-4.532,2.444 -11.244,4.692 -15.991,6.763l0,34.558c0,0.653 -0.032,1.298 -0.049,1.946c7.93,0.843 15.647,-1.115 21.937,-4.916l0,-42.141z"/>
                <path stroke="null" id="svg_9" fill="#ffb1a0"
                      d="m1894.70795,2674.26786c-4.747,-2.07 -11.458,-4.319 -15.99,-6.763c-4.228,-2.28 -7.38,-3.921 -9.104,-8.255c-6.789,5.517 -11.428,13.894 -11.428,22.909c0,16.852 17.679,30.676 36.57,28.602c-0.017,-0.645 -0.047,-1.288 -0.047,-1.935l0,-34.558l-0.001,0z"/>
                <path stroke="null" id="svg_10" fill="#ffa68e"
                      d="m1894.70795,2705.96286c-8.731,-5.219 -14.726,-13.995 -14.726,-23.803c0,-4.444 1.132,-8.731 3.088,-12.599c-1.562,-0.67 -3.052,-1.353 -4.353,-2.055c-4.227,-2.28 -7.38,-3.921 -9.103,-8.255c-6.789,5.517 -11.428,13.894 -11.428,22.909c0,16.852 17.679,30.676 36.57,28.602c-0.017,-0.645 -0.047,-1.288 -0.047,-1.935l0,-2.864l-0.001,0z"/>
                <path stroke="null" id="svg_11" fill="#6e60b8"
                      d="m2120.78995,2843.64486c-3.06,-1.557 -4.35,-1.976 -14.385,-5.895l0,0.034c-12.545,-4.859 -34.152,-13.227 -53.458,-20.703l-78.407,131.711c-3.294,5.836 -11.699,5.837 -14.994,0.001l-78.529,-131.873l-63.753,24.899c-17.194,7.076 -40.217,29.341 -40.217,62.38l0,73.214c0,7.458 6.046,13.504 13.504,13.504l352.988,0c7.458,0 13.504,-6.046 13.504,-13.504l0,-73.214c-0.002,-30.556 -19.691,-51.922 -36.253,-60.554z"/>
                <path stroke="null" id="svg_12" fill="#b1dbfc"
                      d="m1990.10795,2928.41986l56.336,-99.816l-34.656,32.596c-4.019,4.02 -10.597,4.02 -14.616,0l-13.246,-11.184c-2.088,-2.088 -3.081,-4.866 -3,-7.617l-27.677,0c0.081,2.751 -0.912,5.529 -3,7.617l-13.245,10.154c-4.019,4.02 -10.597,4.02 -14.616,0l-34.926,-31.835l56.509,100.085l46.137,0z"/>
                <path stroke="null" id="svg_13" fill="#ffb1a0"
                      d="m1985.98595,2837.45986l30.413,-34.534c-1.82,-0.705 -3.034,-1.175 -3.484,-1.349c-2.85,-1.102 -4.744,-3.844 -4.752,-6.916l-0.02,-27.532c-26.14,17.105 -59.216,14.794 -82.262,-0.11l0,27.597c0,3.063 -1.473,4.868 -3.168,6.019l-5.198,2.03l30.674,34.795c1.932,1.932 2.925,4.454 3,7l31.797,0c0.076,-2.546 1.069,-5.068 3,-7z"/>
                <path stroke="null" id="svg_14" fill="#ffa68e"
                      d="m1967.04395,2779.08086c-14.834,-0.084 -29.323,-4.405 -41.163,-12.062l0,27.597c0,3.063 -1.473,4.868 -3.168,6.019l-5.198,2.03l30.674,34.795c1.932,1.932 2.925,4.454 3,7l15.855,0l0,-65.379z"/>
                <path stroke="null" id="svg_15" fill="#ff7f87"
                      d="m1979.52095,2870.38586l-25.136,0l-10.704,57.518l15.865,28.1c3.295,5.836 11.7,5.835 14.994,-0.001l15.729,-27.868l-10.748,-57.749z"/>
                <path stroke="null" id="svg_16" fill="#ff656f"
                      d="m1967.37695,2935.66286c-2.829,-5.012 -3.803,-10.86 -2.75,-16.518l9.074,-48.759l-19.316,0l-10.704,57.518l15.865,28.099c3.295,5.836 11.7,5.835 14.994,-0.001l2.16,-3.827l-9.323,-16.512z"/>
                <path stroke="null" id="svg_17" fill="#ff656f"
                      d="m1984.95595,2850.01586c-2.088,-2.088 -4.111,-4.866 -4.03,-7.617l-27.677,0c0.081,2.751 -1.942,5.529 -4.03,7.617l-8.633,8.632l13.102,12.124c0.447,0.414 1.034,0.644 1.644,0.644l23.239,0c0.61,0 1.197,-0.23 1.645,-0.645l13.237,-12.258l-8.497,-8.497z"/>
                <path stroke="null" id="svg_18" fill="#ff4756"
                      d="m1965.46895,2863.99486c-3.095,-2.864 -3.19,-7.727 -0.208,-10.709l3.664,-3.664c1.998,-1.997 3.922,-4.592 4.209,-7.223l-19.884,0c0.081,2.751 -1.942,5.529 -4.03,7.617l-8.633,8.632l13.102,12.124c0.447,0.414 1.034,0.644 1.644,0.644l18.156,0l-8.02,-7.421z"/>
                <path stroke="null" id="svg_19" fill="#dfebfa"
                      d="m1917.51495,2802.66486l-36.498,14.254l6.445,11.415l34.926,34.926c4.02,4.02 10.597,4.02 14.616,0l13.245,-13.245c4.02,-4.019 4.02,-10.597 0,-14.617l-32.734,-32.733z"/>
                <path stroke="null" id="svg_20" fill="#dfebfa"
                      d="m2016.39995,2802.92586l-32.474,32.473c-4.02,4.02 -4.02,10.597 0,14.617l13.245,13.245c4.02,4.02 10.597,4.02 14.616,0l34.656,-34.656l6.504,-11.524c-15.806,-6.122 -30.068,-11.646 -36.547,-14.155z"/>
                <path stroke="null" id="svg_21" fill="#ffcebe"
                      d="m1967.04395,2688.72186c-11.089,0 -21.945,-0.986 -32.497,-2.849l0,23.589c0,31.19 19.552,60.195 51.017,70.582c32.034,-7.855 55.877,-36.798 55.877,-71.218l0,-35.588c-22.792,9.943 -47.94,15.484 -74.397,15.484z"/>
                <g stroke="null" id="svg_22">
                    <path stroke="null" id="svg_23" fill="#ffb1a0"
                          d="m1935.50095,2708.82586l0,-22.79c-14.967,-2.562 -29.327,-6.898 -42.853,-12.798l0,35.588c0,38.328 30.031,73.335 75.458,73.335c7.201,0 14.156,-1.061 20.735,-3.004c-32.793,-9.237 -53.34,-38.638 -53.34,-70.331z"/>
                </g>
                <path stroke="null" id="svg_24" fill="#6353b2"
                      d="m2099.74695,2990.91586l0,-75.886c0,-4.267 -3.459,-7.726 -7.726,-7.726s-7.726,3.459 -7.726,7.726l0,75.886l15.452,0z"/>
                <path stroke="null" id="svg_25" fill="#6353b2"
                      d="m1849.79395,2990.91586l0,-75.886c0,-4.267 -3.459,-7.726 -7.726,-7.726s-7.726,3.459 -7.726,7.726l0,75.886l15.452,0z"/>
                <path stroke="null" id="svg_26" fill="#6e60b8"
                      d="m1977.13695,2620.02786c-6.352,3.183 -13.834,3.183 -20.186,0l-88.826,-44.505l0,59.929c1.126,0.958 2.323,1.843 3.654,2.561c28.357,15.291 60.788,23.994 95.264,23.994s66.907,-8.703 95.264,-23.994c1.331,-0.718 2.529,-1.603 3.654,-2.561l0,-59.93l-88.824,44.506z"/>
                <path stroke="null" id="svg_27" fill="#6353b2"
                      d="m1906.59595,2594.79786l-38.47,-19.275l0,59.929c1.126,0.958 2.323,1.843 3.654,2.561c11.027,5.946 22.676,10.881 34.816,14.71l0,-57.925z"/>
                <path stroke="null" id="svg_28" fill="#9790cc"
                      d="m2062.30795,2635.95286c-28.357,15.291 -60.787,23.993 -95.264,23.993s-66.907,-8.702 -95.264,-23.994c-1.332,-0.718 -2.529,-1.603 -3.655,-2.561l0,18.12c0,7.492 3.997,14.499 10.592,18.055c26.293,14.177 56.36,22.246 88.327,22.246s62.034,-8.069 88.327,-22.246c6.595,-3.556 10.592,-10.563 10.592,-18.055l0,-18.12c-1.126,0.959 -2.323,1.844 -3.655,2.562z"/>
                <path stroke="null" id="svg_29" fill="#8479c2"
                      d="m1906.59595,2650.66286c-12.139,-3.829 -23.789,-8.764 -34.816,-14.71c-1.332,-0.718 -2.529,-1.603 -3.654,-2.561l0,18.12c0,7.492 3.997,14.499 10.592,18.055c8.883,4.79 18.206,8.863 27.879,12.183l0,-31.087l-0.001,0z"/>
                <path stroke="null" id="svg_30" fill="#6353b2"
                      d="m1815.24695,2889.22986c0,-25.254 14.049,-45.082 24.085,-56.03l-22.068,8.619c-17.194,7.076 -40.217,29.341 -40.217,62.38l0,73.214c0,7.458 6.046,13.504 13.504,13.504l24.697,0c-0.001,-35.851 -0.001,-80.23 -0.001,-101.687z"/>
                <path stroke="null" id="svg_31" fill="#9790cc"
                      d="m2104.98795,2545.36086l-127.851,-64.058c-6.352,-3.183 -13.834,-3.183 -20.186,0l-127.851,64.058c-7.335,3.675 -7.335,14.144 0,17.819l127.851,64.058c6.352,3.183 13.834,3.183 20.186,0l127.851,-64.058c7.335,-3.675 7.335,-14.143 0,-17.819z"/>
                <path stroke="null" id="svg_32" fill="#8479c2"
                      d="m2002.48795,2605.87886l-132.66,-66.467c-4.681,-2.346 -6.471,-7.356 -5.394,-11.754l-35.334,17.704c-7.335,3.675 -7.335,14.144 0,17.819l127.851,64.058c6.352,3.183 13.834,3.183 20.186,0l37.889,-18.984c-4.265,0.378 -8.61,-0.407 -12.538,-2.376z"/>
                <g stroke="null" id="svg_33">
                    <path stroke="null" id="svg_34" fill="#6353b2"
                          d="m2110.48895,2651.47286c-4.267,0 -7.726,-3.459 -7.726,-7.726l0,-81.75l-122.491,0c-4.267,0 -7.726,-3.459 -7.726,-7.726s3.459,-7.726 7.726,-7.726l130.217,0c4.267,0 7.726,3.459 7.726,7.726l0,89.475c0.001,4.267 -3.459,7.727 -7.726,7.727z"/>
                </g>
                <g stroke="null" id="svg_35">
                    <g stroke="null" id="svg_36">
                        <path stroke="null" id="svg_37" fill="#fec458"
                              d="m2133.01195,2696.22686l-9.856,-39.663c-2.996,3.71 -7.526,6.131 -12.666,6.131s-9.67,-2.421 -12.666,-6.13l-9.856,39.663c-1.996,7.612 3.747,15.053 11.615,15.053l21.814,0c7.868,-0.001 13.61,-7.442 11.615,-15.054z"/>
                    </g>
                </g>
                <g stroke="null" id="svg_38">
                    <path stroke="null" id="svg_39" fill="#f9ab49"
                          d="m2106.54495,2697.25786l8.78,-35.332c-1.527,0.485 -3.144,0.77 -4.836,0.77c-5.14,0 -9.67,-2.421 -12.666,-6.13l-9.856,39.663c-1.995,7.612 3.747,15.053 11.615,15.053l13.741,0c-5.183,-2.288 -8.332,-8.096 -6.778,-14.024z"/>
                </g>
                <circle stroke="null" id="svg_40" r="16.841" fill="#8479c2" cy="2554.27086" cx="1967.04395"/>
                <circle stroke="null" id="svg_41" r="16.347" fill="#ffe181" cy="2648.40886" cx="2110.48895"/>
                <path stroke="null" id="svg_42" fill="#fec458"
                      d="m2108.73695,2648.40786c0,-6.402 3.689,-11.929 9.049,-14.612c-2.199,-1.1 -4.671,-1.735 -7.297,-1.735c-9.028,0 -16.347,7.318 -16.347,16.346s7.319,16.346 16.347,16.346c2.626,0 5.098,-0.634 7.297,-1.734c-5.36,-2.681 -9.049,-8.209 -9.049,-14.611z"/>
            </g>
        </g>
    </g>
</svg>