<svg id="Layer_1" enable-background="new 0 0 510 510" height="512" viewBox="0 0 510 510" width="512"
     xmlns="http://www.w3.org/2000/svg">
    <g>
        <path id="XMLID_1475_"
              d="m89.941 11c-43.527 0-78.941 35.412-78.941 78.941v330.117c0 43.528 35.411 78.942 78.941 78.942h165.059l15-244-15-244c-4.656 0-160.402 0-165.059 0z"
              fill="#edf5ff"/>
        <path id="XMLID_1468_"
              d="m82.5 480c-28.947 0-52.5-23.551-52.5-52.5 0-19.177 0-325.823 0-345 0-28.947 23.551-52.5 52.5-52.5h172.5l15-15-15-15c-4.865 0-167.635 0-172.5 0-45.489 0-82.5 37.008-82.5 82.5v345c0 45.489 37.008 82.5 82.5 82.5h172.5l15-15-15-15c-4.865 0-167.635 0-172.5 0z"
              fill="#ff884d"/>
        <path id="XMLID_1465_"
              d="m499 420.059v-330.118c0-43.529-35.413-78.941-78.941-78.941h-165.059v488h165.059c43.528 0 78.941-35.413 78.941-78.941z"
              fill="#b5dbff"/>
        <path id="XMLID_1419_"
              d="m379.394 248.394-49.394 49.393-49.394-49.393-21.212 21.212 49.393 49.394-49.393 49.394 21.212 21.212 49.394-49.393 49.394 49.393 21.212-21.212-49.393-49.394 49.393-49.394z"
              fill="#66f"/>
        <path id="XMLID_578_"
              d="m510 427.5v-345c0-45.49-37.01-82.5-82.5-82.5h-172.5v30h172.5c28.948 0 52.5 23.551 52.5 52.5v345c0 28.948-23.552 52.5-52.5 52.5h-172.5v30h172.5c45.49 0 82.5-37.01 82.5-82.5z"
              fill="#ff4d4d"/>
        <path id="XMLID_1471_"
              d="m150 157.5v52.5c-14.981 0-30.019 0-45 0v30h45v150h30c0-10.128 0-139.871 0-150h45c0-10.492 0-19.508 0-30-14.981 0-30.019 0-45 0 0-17.496 0-35.004 0-52.5 0-10.339 4.205-19.714 10.996-26.504 14.658-14.658 38.341-14.668 53.008 0 6.79 6.79 10.996 16.165 10.996 26.504l15-28.047-15-28.047c-5.459-3.66-11.477-6.548-17.898-8.502-43.145-13.127-87.102 19.258-87.102 64.596z"
              fill="#72bbff"/>
        <path id="XMLID_1446_" d="m285 157.5c0-23.354-11.924-43.97-30-56.094v78.594h30z" fill="#66f"/>
    </g>
</svg>