<?xml version="1.0" encoding="iso-8859-1"?>
<!-- Generator: Adobe Illustrator 21.0.0, SVG Export Plug-In . SVG Version: 6.00 Build 0)  -->
<svg xmlns="http://www.w3.org/2000/svg" xmlns:xlink="http://www.w3.org/1999/xlink" version="1.1" id="Capa_1" x="0px"
     y="0px" viewBox="0 0 512 512" style="enable-background:new 0 0 512 512;" xml:space="preserve" width="512"
     height="512">
<path style="fill:#22B8F9;"
      d="M512,246.408V134.056l-101.985-8.465L420.437,0H308.085l-9.654,116.33l-61.256-5.083L246.406,0  H134.055l-8.464,101.985L0,91.563v112.352l116.33,9.654l-5.084,61.256L0,265.593v112.353l101.985,8.464L91.563,512h112.352  l9.654-116.33l61.256,5.084L265.593,512h112.353l8.464-101.985L512,420.438V308.085l-116.33-9.654l5.084-61.256L512,246.408z   M289.17,227.914l-5.084,61.256l-61.256-5.084l5.084-61.255L289.17,227.914z"/>
    <polygon style="fill:#0082FF;"
             points="512,246.408 512,134.056 410.015,125.591 420.437,0 308.085,0 298.431,116.33 256,112.817   256,225.162 289.17,227.914 284.086,289.17 256,286.839 256,399.191 274.825,400.754 265.593,512 377.945,512 386.409,410.015   512,420.438 512,308.085 395.67,298.431 400.754,237.175 "/>















</svg>
