<svg width="210" height="64" xmlns="http://www.w3.org/2000/svg">
    <!-- Created with Method Draw - http://github.com/duopixel/Method-Draw/ -->

    <g>
        <title>background</title>
        <rect fill="none" id="canvas_background" height="66" width="212" y="-1" x="-1"/>
        <g display="none" overflow="visible" y="0" x="0" height="100%" width="100%" id="canvasGrid">
            <rect fill="url(#gridpattern)" stroke-width="0" y="0" x="0" height="100%" width="100%"/>
        </g>
    </g>
    <g>
        <title>Layer 1</title>
        <!-- Created with Method Draw - http://github.com/duopixel/Method-Draw/ -->
        <g stroke="null" id="svg_93">
            <g stroke="null"
               transform="matrix(0.9900030546162055,0,0,0.9660377350402978,-9967.533026096571,-2963.471187307665) "
               id="svg_90">
                <title stroke="null"
                       transform="translate(-1.8610715866088867,-8.858307838439941) translate(1.395803689956665,8.61889362335205) translate(2.335280179977417,-1.001391053199768) translate(-2.335280179977417,1.2016692161560059) translate(0.19460667669773102,0) translate(10069.4384765625,0) translate(0,3068.781005859375) ">
                    background
                </title>
                <rect stroke="null" x="10068.16782" y="3067.74187" width="212" height="66" id="svg_88" fill="none"/>
                <g stroke="null" id="svg_87" display="none">
                    <rect stroke="null" id="svg_91" width="210" height="64" x="10069.16782" y="3068.74187"
                          stroke-width="0" fill="url(#gridpattern)"/>
                </g>
            </g>
            <g stroke="null"
               transform="matrix(0.9900030546162055,0,0,0.9660377350402978,-9967.533026096571,-2963.471187307665) "
               id="svg_92">
                <title stroke="null"
                       transform="translate(-1.8610715866088867,-8.858307838439941) translate(1.395803689956665,8.61889362335205) translate(2.335280179977417,-1.001391053199768) translate(-2.335280179977417,1.2016692161560059) translate(0.19460667669773102,0) translate(10069.4384765625,0) translate(0,3068.781005859375) ">
                    Layer 1
                </title>
                <g stroke="null" id="svg_48">
                    <g stroke="null" id="svg_50"
                       transform="matrix(0.12335784101598869,0,0,0.12381389568733425,-304.23022230751735,-161.2850794877106) ">
                        <path stroke="null"
                              d="m84395.41116,26271.88767c-1.65,4.648 -4.917,6.577 -9.38,8.983c-4.532,2.444 -11.244,4.692 -15.99,6.763l0,34.558c0,0.653 -0.032,1.298 -0.049,1.946c18.873,2.007 36.572,-11.814 36.572,-28.711c-0.001,-9.155 -4.277,-17.886 -11.153,-23.539z"
                              fill="#ffb1a0" id="svg_86"/>
                        <path stroke="null"
                              d="m84391.92816,26277.08067c-1.609,1.429 -3.592,2.547 -5.897,3.79c-4.532,2.444 -11.244,4.692 -15.991,6.763l0,34.558c0,0.653 -0.032,1.298 -0.049,1.946c7.93,0.843 15.647,-1.115 21.937,-4.916l0,-42.141z"
                              fill="#ffa68e" id="svg_85"/>
                        <path stroke="null"
                              d="m84225.36816,26287.63367c-4.747,-2.07 -11.458,-4.319 -15.99,-6.763c-4.228,-2.28 -7.38,-3.921 -9.104,-8.255c-6.789,5.517 -11.428,13.894 -11.428,22.909c0,16.852 17.679,30.676 36.57,28.602c-0.017,-0.645 -0.047,-1.288 -0.047,-1.935l0,-34.558l-0.001,0z"
                              fill="#ffb1a0" id="svg_84"/>
                        <path stroke="null"
                              d="m84225.36816,26319.32867c-8.731,-5.219 -14.726,-13.995 -14.726,-23.803c0,-4.444 1.132,-8.731 3.088,-12.599c-1.562,-0.67 -3.052,-1.353 -4.353,-2.055c-4.227,-2.28 -7.38,-3.921 -9.103,-8.255c-6.789,5.517 -11.428,13.894 -11.428,22.909c0,16.852 17.679,30.676 36.57,28.602c-0.017,-0.645 -0.047,-1.288 -0.047,-1.935l0,-2.864l-0.001,0z"
                              fill="#ffa68e" id="svg_83"/>
                        <path stroke="null"
                              d="m84451.45016,26457.01067c-3.06,-1.557 -4.35,-1.976 -14.385,-5.895l0,0.034c-12.545,-4.859 -34.152,-13.227 -53.458,-20.703l-78.407,131.711c-3.294,5.836 -11.699,5.837 -14.994,0.001l-78.529,-131.873l-63.753,24.899c-17.194,7.076 -40.217,29.341 -40.217,62.38l0,73.214c0,7.458 6.046,13.504 13.504,13.504l352.988,0c7.458,0 13.504,-6.046 13.504,-13.504l0,-73.214c-0.002,-30.556 -19.691,-51.922 -36.253,-60.554z"
                              fill="#6e60b8" id="svg_82"/>
                        <path stroke="null"
                              d="m84320.76816,26541.78567l56.336,-99.816l-34.656,32.596c-4.019,4.02 -10.597,4.02 -14.616,0l-13.246,-11.184c-2.088,-2.088 -3.081,-4.866 -3,-7.617l-27.677,0c0.081,2.751 -0.912,5.529 -3,7.617l-13.245,10.154c-4.019,4.02 -10.597,4.02 -14.616,0l-34.926,-31.835l56.509,100.085l46.137,0z"
                              fill="#b1dbfc" id="svg_81"/>
                        <path stroke="null"
                              d="m84316.64616,26450.82567l30.413,-34.534c-1.82,-0.705 -3.034,-1.175 -3.484,-1.349c-2.85,-1.102 -4.744,-3.844 -4.752,-6.916l-0.02,-27.532c-26.14,17.105 -59.216,14.794 -82.262,-0.11l0,27.597c0,3.063 -1.473,4.868 -3.168,6.019l-5.198,2.03l30.674,34.795c1.932,1.932 2.925,4.454 3,7l31.797,0c0.076,-2.546 1.069,-5.068 3,-7z"
                              fill="#ffb1a0" id="svg_80"/>
                        <path stroke="null"
                              d="m84297.70416,26392.44667c-14.834,-0.084 -29.323,-4.405 -41.163,-12.062l0,27.597c0,3.063 -1.473,4.868 -3.168,6.019l-5.198,2.03l30.674,34.795c1.932,1.932 2.925,4.454 3,7l15.855,0l0,-65.379z"
                              fill="#ffa68e" id="svg_79"/>
                        <path stroke="null"
                              d="m84310.18116,26483.75167l-25.136,0l-10.704,57.518l15.865,28.1c3.295,5.836 11.7,5.835 14.994,-0.001l15.729,-27.868l-10.748,-57.749z"
                              fill="#ff7f87" id="svg_78"/>
                        <path stroke="null"
                              d="m84298.03716,26549.02867c-2.829,-5.012 -3.803,-10.86 -2.75,-16.518l9.074,-48.759l-19.316,0l-10.704,57.518l15.865,28.099c3.295,5.836 11.7,5.835 14.994,-0.001l2.16,-3.827l-9.323,-16.512z"
                              fill="#ff656f" id="svg_77"/>
                        <path stroke="null"
                              d="m84315.61616,26463.38167c-2.088,-2.088 -4.111,-4.866 -4.03,-7.617l-27.677,0c0.081,2.751 -1.942,5.529 -4.03,7.617l-8.633,8.632l13.102,12.124c0.447,0.414 1.034,0.644 1.644,0.644l23.239,0c0.61,0 1.197,-0.23 1.645,-0.645l13.237,-12.258l-8.497,-8.497z"
                              fill="#ff656f" id="svg_76"/>
                        <path stroke="null"
                              d="m84296.12916,26477.36067c-3.095,-2.864 -3.19,-7.727 -0.208,-10.709l3.664,-3.664c1.998,-1.997 3.922,-4.592 4.209,-7.223l-19.884,0c0.081,2.751 -1.942,5.529 -4.03,7.617l-8.633,8.632l13.102,12.124c0.447,0.414 1.034,0.644 1.644,0.644l18.156,0l-8.02,-7.421z"
                              fill="#ff4756" id="svg_75"/>
                        <path stroke="null"
                              d="m84248.17516,26416.03067l-36.498,14.254l6.445,11.415l34.926,34.926c4.02,4.02 10.597,4.02 14.616,0l13.245,-13.245c4.02,-4.019 4.02,-10.597 0,-14.617l-32.734,-32.733z"
                              fill="#dfebfa" id="svg_74"/>
                        <path stroke="null"
                              d="m84347.06016,26416.29167l-32.474,32.473c-4.02,4.02 -4.02,10.597 0,14.617l13.245,13.245c4.02,4.02 10.597,4.02 14.616,0l34.656,-34.656l6.504,-11.524c-15.806,-6.122 -30.068,-11.646 -36.547,-14.155z"
                              fill="#dfebfa" id="svg_73"/>
                        <path stroke="null"
                              d="m84297.70416,26302.08767c-11.089,0 -21.945,-0.986 -32.497,-2.849l0,23.589c0,31.19 19.552,60.195 51.017,70.582c32.034,-7.855 55.877,-36.798 55.877,-71.218l0,-35.588c-22.792,9.943 -47.94,15.484 -74.397,15.484z"
                              fill="#ffcebe" id="svg_72"/>
                        <g stroke="null" id="svg_70">
                            <path stroke="null"
                                  d="m84266.16116,26322.19167l0,-22.79c-14.967,-2.562 -29.327,-6.898 -42.853,-12.798l0,35.588c0,38.328 30.031,73.335 75.458,73.335c7.201,0 14.156,-1.061 20.735,-3.004c-32.793,-9.237 -53.34,-38.638 -53.34,-70.331z"
                                  fill="#ffb1a0" id="svg_71"/>
                        </g>
                        <path stroke="null"
                              d="m84430.40716,26604.28167l0,-75.886c0,-4.267 -3.459,-7.726 -7.726,-7.726s-7.726,3.459 -7.726,7.726l0,75.886l15.452,0z"
                              fill="#6353b2" id="svg_69"/>
                        <path stroke="null"
                              d="m84180.45416,26604.28167l0,-75.886c0,-4.267 -3.459,-7.726 -7.726,-7.726s-7.726,3.459 -7.726,7.726l0,75.886l15.452,0z"
                              fill="#6353b2" id="svg_68"/>
                        <path stroke="null"
                              d="m84307.79716,26233.39367c-6.352,3.183 -13.834,3.183 -20.186,0l-88.826,-44.505l0,59.929c1.126,0.958 2.323,1.843 3.654,2.561c28.357,15.291 60.788,23.994 95.264,23.994s66.907,-8.703 95.264,-23.994c1.331,-0.718 2.529,-1.603 3.654,-2.561l0,-59.93l-88.824,44.506z"
                              fill="#6e60b8" id="svg_67"/>
                        <path stroke="null"
                              d="m84237.25616,26208.16367l-38.47,-19.275l0,59.929c1.126,0.958 2.323,1.843 3.654,2.561c11.027,5.946 22.676,10.881 34.816,14.71l0,-57.925z"
                              fill="#6353b2" id="svg_66"/>
                        <path stroke="null"
                              d="m84392.96816,26249.31867c-28.357,15.291 -60.787,23.993 -95.264,23.993s-66.907,-8.702 -95.264,-23.994c-1.332,-0.718 -2.529,-1.603 -3.655,-2.561l0,18.12c0,7.492 3.997,14.499 10.592,18.055c26.293,14.177 56.36,22.246 88.327,22.246s62.034,-8.069 88.327,-22.246c6.595,-3.556 10.592,-10.563 10.592,-18.055l0,-18.12c-1.126,0.959 -2.323,1.844 -3.655,2.562z"
                              fill="#9790cc" id="svg_65"/>
                        <path stroke="null"
                              d="m84237.25616,26264.02867c-12.139,-3.829 -23.789,-8.764 -34.816,-14.71c-1.332,-0.718 -2.529,-1.603 -3.654,-2.561l0,18.12c0,7.492 3.997,14.499 10.592,18.055c8.883,4.79 18.206,8.863 27.879,12.183l0,-31.087l-0.001,0z"
                              fill="#8479c2" id="svg_64"/>
                        <path stroke="null"
                              d="m84145.90716,26502.59567c0,-25.254 14.049,-45.082 24.085,-56.03l-22.068,8.619c-17.194,7.076 -40.217,29.341 -40.217,62.38l0,73.214c0,7.458 6.046,13.504 13.504,13.504l24.697,0c-0.001,-35.851 -0.001,-80.23 -0.001,-101.687z"
                              fill="#6353b2" id="svg_63"/>
                        <path stroke="null"
                              d="m84435.64816,26158.72667l-127.851,-64.058c-6.352,-3.183 -13.834,-3.183 -20.186,0l-127.851,64.058c-7.335,3.675 -7.335,14.144 0,17.819l127.851,64.058c6.352,3.183 13.834,3.183 20.186,0l127.851,-64.058c7.335,-3.675 7.335,-14.143 0,-17.819z"
                              fill="#9790cc" id="svg_62"/>
                        <path stroke="null"
                              d="m84333.14816,26219.24467l-132.66,-66.467c-4.681,-2.346 -6.471,-7.356 -5.394,-11.754l-35.334,17.704c-7.335,3.675 -7.335,14.144 0,17.819l127.851,64.058c6.352,3.183 13.834,3.183 20.186,0l37.889,-18.984c-4.265,0.378 -8.61,-0.407 -12.538,-2.376z"
                              fill="#8479c2" id="svg_61"/>
                        <g stroke="null" id="svg_59">
                            <path stroke="null"
                                  d="m84441.14916,26264.83867c-4.267,0 -7.726,-3.459 -7.726,-7.726l0,-81.75l-122.491,0c-4.267,0 -7.726,-3.459 -7.726,-7.726s3.459,-7.726 7.726,-7.726l130.217,0c4.267,0 7.726,3.459 7.726,7.726l0,89.475c0.001,4.267 -3.459,7.727 -7.726,7.727z"
                                  fill="#6353b2" id="svg_60"/>
                        </g>
                        <g stroke="null" id="svg_56">
                            <g stroke="null" id="svg_57">
                                <path stroke="null"
                                      d="m84463.67216,26309.59267l-9.856,-39.663c-2.996,3.71 -7.526,6.131 -12.666,6.131s-9.67,-2.421 -12.666,-6.13l-9.856,39.663c-1.996,7.612 3.747,15.053 11.615,15.053l21.814,0c7.868,-0.001 13.61,-7.442 11.615,-15.054z"
                                      fill="#fec458" id="svg_58"/>
                            </g>
                        </g>
                        <g stroke="null" id="svg_54">
                            <path stroke="null"
                                  d="m84437.20516,26310.62367l8.78,-35.332c-1.527,0.485 -3.144,0.77 -4.836,0.77c-5.14,0 -9.67,-2.421 -12.666,-6.13l-9.856,39.663c-1.995,7.612 3.747,15.053 11.615,15.053l13.741,0c-5.183,-2.288 -8.332,-8.096 -6.778,-14.024z"
                                  fill="#f9ab49" id="svg_55"/>
                        </g>
                        <circle stroke="null" cx="84297.70416" cy="26167.63667" fill="#8479c2" r="16.841" id="svg_53"/>
                        <circle stroke="null" cx="84441.14916" cy="26261.77467" fill="#ffe181" r="16.347" id="svg_52"/>
                        <path stroke="null"
                              d="m84439.39716,26261.77367c0,-6.402 3.689,-11.929 9.049,-14.612c-2.199,-1.1 -4.671,-1.735 -7.297,-1.735c-9.028,0 -16.347,7.318 -16.347,16.346s7.319,16.346 16.347,16.346c2.626,0 5.098,-0.634 7.297,-1.734c-5.36,-2.681 -9.049,-8.209 -9.049,-14.611z"
                              fill="#fec458" id="svg_51"/>
                    </g>
                    <text stroke="#000" fill="#000000" stroke-width="0" x="2342.63716" y="3096.57265" id="svg_49"
                          font-size="24" font-family="Helvetica, Arial, sans-serif" text-anchor="start"
                          xml:space="preserve" transform="matrix(4.512357234954834,0,0,1,-443.16069800406694,0) "/>
                </g>
                <text stroke="#000" fill="#000000" stroke-width="0" stroke-opacity="null" fill-opacity="null"
                      x="6008.12509" y="3092.98292" id="svg_47" font-size="24"
                      font-family="Helvetica, Arial, sans-serif" text-anchor="start" xml:space="preserve"
                      transform="matrix(1.7104527317873848,0,0,1,-135.26900117881002,0) "/>
                <text stroke="#000" fill="#ffffff" stroke-width="0" stroke-opacity="null" x="10184.82843" y="3322.87034"
                      id="svg_46" font-size="33" font-family="'Times New Roman', Times, serif" text-anchor="start"
                      xml:space="preserve" stroke-dasharray="2,2"
                      transform="matrix(0.9932951331138611,0,0,0.9354459643363953,0.8320320751518011,2.816375428001038) "
                      font-weight="normal" font-style="normal">TutRes.com</text>
            </g>
        </g>
        <g stroke="null" id="svg_153">
            <g stroke="null"
               transform="matrix(1.118975973794606,0,0,0.6907681941459212,-10.059319574609034,10.036756015664363) "
               fill-rule="evenodd" fill="none" id="svg_145">
                <g stroke="null" fill-rule="nonzero" id="svg_146">
                    <path stroke="null" fill="#c03a2b"
                          d="m241.67972,-5.85688s19.449,-2.992 14.429,11.152l-14.429,-11.152z" id="svg_150"/>
                    <path stroke="null" fill="#e64c3c" d="m252.67972,6.14312s0,-13 -19,-13s-19,13 -19,13l38,0z"
                          id="svg_148"/>
                    <path stroke="null" fill="#d1d4d1"
                          d="m251.42972,1.51312c1.17648,-1.89834 3.46923,-2.78625 5.61743,-2.17547c2.14819,0.61078 3.63082,2.57214 3.63257,4.80547c0,4.475 -5.894,7.566 -10.318,2l1.068,-4.63z"
                          id="Shape"/>
                    <path stroke="null" fill="#f9c795"
                          d="m255.24972,14.28312c2.11791,0.65359 3.53554,2.64482 3.46,4.86c0.10355,2.43634 -1.62484,4.56788 -4.03,4.97l-41.97,0c-2.40516,-0.40212 -4.13355,-2.53366 -4.03,-4.97c-0.07554,-2.21518 1.34209,-4.20641 3.46,-4.86l43.11,0z"
                          id="Shape"/>
                    <path stroke="null" fill="#fdd7ad"
                          d="m253.05072,29.36012c1.3,-0.46 1.545,-1.789 1.589,-3.117c0.03,-0.36 0.04,-0.73 0.04,-1.1c-0.04353,-6.92708 -3.73577,-13.31811 -9.715,-16.816l-19.929,-1.354c-7.40172,3.01602 -12.27191,10.17783 -12.356,18.17c-0.09068,1.72243 0.26152,3.43937 1.023,4.987l39.348,-0.77z"
                          id="Shape"/>
                    <g stroke="null" id="svg_152" fill="#ecf0f1">
                        <path stroke="null"
                              d="m254.55972,41.05312c-3.39,6.67 -16.66,4.81 -20.1,9.68c-0.17584,0.25794 -0.46783,0.41227 -0.78,0.41227s-0.60416,-0.15433 -0.78,-0.41227c-3.44,-4.87 -16.71,-3.01 -20.1,-9.68c-3.89,-7.64 -1.52,-12.06 -0.01,-13.86c0.28548,-0.34376 0.60736,-0.65558 0.96,-0.93c2.00145,-0.31837 4.05211,0.02575 5.84,0.98c0.79953,0.4229 1.53655,0.95463 2.19,1.58l23.9,0.32c0.62095,-0.59867 1.31275,-1.1192 2.06,-1.55c1.50827,-0.86567 3.20253,-1.35611 4.94,-1.43c0.31229,0.00659 0.62344,0.04005 0.93,0.1c0.35264,0.27442 0.67452,0.58624 0.96,0.93c1.51,1.8 3.88,6.22 -0.01,13.86z"
                              id="Shape"/>
                        <circle stroke="null" r="5" cy="17.14312" cx="226.67972" id="svg_149"/>
                        <circle stroke="null" r="5" cy="17.14312" cx="240.67972" id="svg_147"/>
                        <path stroke="null"
                              d="m251.88972,15.18312c-0.02,0 -0.05,-0.01 -0.07,-0.01c-0.01099,0.00132 -0.022,-0.00235 -0.03,-0.01c-0.07146,-0.0063 -0.13689,-0.04265 -0.18,-0.1c-5.083,-5.875 -14.337,-6.173 -17.118,-6.121c-0.542,0.01 -1.082,0.01 -1.624,0c-2.781,-0.052 -12.035,0.246 -17.118,6.121c-0.04311,0.05735 -0.10854,0.0937 -0.18,0.1c-0.008,0.00765 -0.01901,0.01132 -0.03,0.01c-0.02,0 -0.05,0.01 -0.07,0.01c-3.76,0.42 -6.27,-3.45 -3.94,-6.12c2.93,-3.38 9.64,-8.92 22.15,-8.92s19.22,5.54 22.15,8.92c2.33,2.67 -0.18,6.54 -3.94,6.12z"
                              id="Shape"/>
                    </g>
                    <path stroke="null" fill="#d1d4d1"
                          d="m247.73972,27.59312l-0.07,0.66c-0.28,2.73 -2.35,7.89 -8.23,7.89c-1.9948,-0.06498 -3.95512,-0.53804 -5.76,-1.39c-1.80488,0.85196 -3.7652,1.32502 -5.76,1.39c-5.88,0 -7.95,-5.16 -8.23,-7.89l-0.1,-1.01c0.79953,0.4229 1.53655,0.95463 2.19,1.58l23.9,0.32c0.62095,-0.59867 1.31275,-1.1192 2.06,-1.55z"
                          id="Shape"/>
                    <circle stroke="null" r="3" fill="#35495e" cy="17.14312" cx="227.67972" id="Oval"/>
                    <circle stroke="null" r="3" fill="#35495e" cy="17.14312" cx="239.67972" id="Oval"/>
                    <circle stroke="null" r="1" fill="#ecf0f1" cy="16.14312" cx="225.67972" id="Oval"/>
                    <circle stroke="null" r="1" fill="#ecf0f1" cy="16.14312" cx="237.67972" id="Oval"/>
                    <path stroke="null" fill="#fdd7ad"
                          d="m240.44472,31.08412l-0.765,3.059s-1,4 -6,4s-6,-4 -6,-4l-0.706,-2.823l13.471,-0.236z"
                          id="Shape"/>
                    <path stroke="null" fill="#ecf0f1"
                          d="m237.46972,26.09312c2.163,0.118 3.955,1.282 5.727,1.976c0.80312,0.29267 1.68495,0.28521 2.483,-0.021c0,0 -1,9.849 -12,4.508c-11,5.341 -12,-4.508 -12,-4.508c0.79805,0.30621 1.67988,0.31367 2.483,0.021c1.772,-0.694 3.564,-1.858 5.727,-1.976l7.58,0z"
                          id="Shape"/>
                    <ellipse stroke="null" ry="3" rx="4" fill="#fb7b76" cy="25.14312" cx="233.67972" id="Oval"/>
                </g>
            </g>
        </g>
        <g stroke="null" id="svg_168">
            <g stroke="null"
               transform="matrix(0.34049780507647875,0,0,0.35497216909356033,85.27795082891646,38.912077718027405) "
               fill-rule="evenodd" fill="none" id="svg_160">
                <g stroke="null" fill-rule="nonzero" id="svg_161">
                    <path stroke="null" fill="#c03a2b"
                          d="m262.11415,-40.34952s19.449,-2.992 14.429,11.152l-14.429,-11.152z" id="svg_165"/>
                    <path stroke="null" fill="#e64c3c" d="m273.11415,-28.34952s0,-13 -19,-13s-19,13 -19,13l38,0z"
                          id="svg_163"/>
                    <path stroke="null" fill="#d1d4d1"
                          d="m271.86415,-32.97952c1.17648,-1.89834 3.46923,-2.78625 5.61743,-2.17547c2.14819,0.61078 3.63082,2.57214 3.63257,4.80547c0,4.475 -5.894,7.566 -10.318,2l1.068,-4.63z"
                          id="Shape"/>
                    <path stroke="null" fill="#f9c795"
                          d="m275.68415,-20.20952c2.11791,0.65359 3.53554,2.64482 3.46,4.86c0.10355,2.43634 -1.62484,4.56788 -4.03,4.97l-41.97,0c-2.40516,-0.40212 -4.13355,-2.53366 -4.03,-4.97c-0.07554,-2.21518 1.34209,-4.20641 3.46,-4.86l43.11,0z"
                          id="Shape"/>
                    <path stroke="null" fill="#fdd7ad"
                          d="m273.48515,-5.13252c1.3,-0.46 1.545,-1.789 1.589,-3.117c0.03,-0.36 0.04,-0.73 0.04,-1.1c-0.04353,-6.92708 -3.73577,-13.31811 -9.715,-16.816l-19.929,-1.354c-7.40172,3.01602 -12.27191,10.17783 -12.356,18.17c-0.09068,1.72243 0.26152,3.43937 1.023,4.987l39.348,-0.77z"
                          id="Shape"/>
                    <g stroke="null" id="svg_167" fill="#ecf0f1">
                        <path stroke="null"
                              d="m274.99415,6.56048c-3.39,6.67 -16.66,4.81 -20.1,9.68c-0.17584,0.25794 -0.46783,0.41227 -0.78,0.41227s-0.60416,-0.15433 -0.78,-0.41227c-3.44,-4.87 -16.71,-3.01 -20.1,-9.68c-3.89,-7.64 -1.52,-12.06 -0.01,-13.86c0.28548,-0.34376 0.60736,-0.65558 0.96,-0.93c2.00145,-0.31837 4.05211,0.02575 5.84,0.98c0.79953,0.4229 1.53655,0.95463 2.19,1.58l23.9,0.32c0.62095,-0.59867 1.31275,-1.1192 2.06,-1.55c1.50827,-0.86567 3.20253,-1.35611 4.94,-1.43c0.31229,0.00659 0.62344,0.04005 0.93,0.1c0.35264,0.27442 0.67452,0.58624 0.96,0.93c1.51,1.8 3.88,6.22 -0.01,13.86z"
                              id="Shape"/>
                        <circle stroke="null" r="5" cy="-17.34952" cx="247.11415" id="svg_164"/>
                        <circle stroke="null" r="5" cy="-17.34952" cx="261.11415" id="svg_162"/>
                        <path stroke="null"
                              d="m272.32415,-19.30952c-0.02,0 -0.05,-0.01 -0.07,-0.01c-0.01099,0.00132 -0.022,-0.00235 -0.03,-0.01c-0.07146,-0.0063 -0.13689,-0.04265 -0.18,-0.1c-5.083,-5.875 -14.337,-6.173 -17.118,-6.121c-0.542,0.01 -1.082,0.01 -1.624,0c-2.781,-0.052 -12.035,0.246 -17.118,6.121c-0.04311,0.05735 -0.10854,0.0937 -0.18,0.1c-0.008,0.00765 -0.01901,0.01132 -0.03,0.01c-0.02,0 -0.05,0.01 -0.07,0.01c-3.76,0.42 -6.27,-3.45 -3.94,-6.12c2.93,-3.38 9.64,-8.92 22.15,-8.92s19.22,5.54 22.15,8.92c2.33,2.67 -0.18,6.54 -3.94,6.12z"
                              id="Shape"/>
                    </g>
                    <path stroke="null" fill="#d1d4d1"
                          d="m268.17415,-6.89952l-0.07,0.66c-0.28,2.73 -2.35,7.89 -8.23,7.89c-1.9948,-0.06498 -3.95512,-0.53804 -5.76,-1.39c-1.80488,0.85196 -3.7652,1.32502 -5.76,1.39c-5.88,0 -7.95,-5.16 -8.23,-7.89l-0.1,-1.01c0.79953,0.4229 1.53655,0.95463 2.19,1.58l23.9,0.32c0.62095,-0.59867 1.31275,-1.1192 2.06,-1.55z"
                          id="Shape"/>
                    <circle stroke="null" r="3" fill="#35495e" cy="-17.34952" cx="248.11415" id="Oval"/>
                    <circle stroke="null" r="3" fill="#35495e" cy="-17.34952" cx="260.11415" id="Oval"/>
                    <circle stroke="null" r="1" fill="#ecf0f1" cy="-18.34952" cx="246.11415" id="Oval"/>
                    <circle stroke="null" r="1" fill="#ecf0f1" cy="-18.34952" cx="258.11415" id="Oval"/>
                    <path stroke="null" fill="#fdd7ad"
                          d="m260.87915,-3.40852l-0.765,3.059s-1,4 -6,4s-6,-4 -6,-4l-0.706,-2.823l13.471,-0.236z"
                          id="Shape"/>
                    <path stroke="null" fill="#ecf0f1"
                          d="m257.90415,-8.39952c2.163,0.118 3.955,1.282 5.727,1.976c0.80312,0.29267 1.68495,0.28521 2.483,-0.021c0,0 -1,9.849 -12,4.508c-11,5.341 -12,-4.508 -12,-4.508c0.79805,0.30621 1.67988,0.31367 2.483,0.021c1.772,-0.694 3.564,-1.858 5.727,-1.976l7.58,0z"
                          id="Shape"/>
                    <ellipse stroke="null" ry="3" rx="4" fill="#fb7b76" cy="-9.34952" cx="254.11415" id="Oval"/>
                </g>
            </g>
        </g>
    </g>
</svg>