<svg width="209.99999999999997" height="64" xmlns="http://www.w3.org/2000/svg">
    <!-- Created with Method Draw - http://github.com/duopixel/Method-Draw/ -->

    <g>
        <title>background</title>
        <rect fill="none" id="canvas_background" height="66" width="212" y="-1" x="-1"/>
        <g display="none" overflow="visible" y="0" x="0" height="100%" width="100%" id="canvasGrid">
            <rect fill="url(#gridpattern)" stroke-width="0" y="0" x="0" height="100%" width="100%"/>
        </g>
    </g>
    <g>
        <title>Layer 1</title>
        <g stroke="null" id="svg_84">
            <g stroke="null"
               transform="matrix(0.11846304108529704,0,0,0.1232609985427899,-503.22940110260345,-176.16863071983596) "
               id="svg_47">
                <path stroke="null" id="svg_48" fill="#ffb1a0"
                      d="m4589.48885,1610.0281c-1.65,4.648 -4.917,6.577 -9.38,8.983c-4.532,2.444 -11.244,4.692 -15.99,6.763l0,34.558c0,0.653 -0.032,1.298 -0.049,1.946c18.873,2.007 36.572,-11.814 36.572,-28.711c-0.001,-9.155 -4.277,-17.886 -11.153,-23.539z"/>
                <path stroke="null" id="svg_49" fill="#ffa68e"
                      d="m4586.00585,1615.2211c-1.609,1.429 -3.592,2.547 -5.897,3.79c-4.532,2.444 -11.244,4.692 -15.991,6.763l0,34.558c0,0.653 -0.032,1.298 -0.049,1.946c7.93,0.843 15.647,-1.115 21.937,-4.916l0,-42.141z"/>
                <path stroke="null" id="svg_50" fill="#ffb1a0"
                      d="m4419.44585,1625.7741c-4.747,-2.07 -11.458,-4.319 -15.99,-6.763c-4.228,-2.28 -7.38,-3.921 -9.104,-8.255c-6.789,5.517 -11.428,13.894 -11.428,22.909c0,16.852 17.679,30.676 36.57,28.602c-0.017,-0.645 -0.047,-1.288 -0.047,-1.935l0,-34.558l-0.001,0z"/>
                <path stroke="null" id="svg_51" fill="#ffa68e"
                      d="m4419.44585,1657.4691c-8.731,-5.219 -14.726,-13.995 -14.726,-23.803c0,-4.444 1.132,-8.731 3.088,-12.599c-1.562,-0.67 -3.052,-1.353 -4.353,-2.055c-4.227,-2.28 -7.38,-3.921 -9.103,-8.255c-6.789,5.517 -11.428,13.894 -11.428,22.909c0,16.852 17.679,30.676 36.57,28.602c-0.017,-0.645 -0.047,-1.288 -0.047,-1.935l0,-2.864l-0.001,0z"/>
                <path stroke="null" id="svg_52" fill="#6e60b8"
                      d="m4645.52785,1795.1511c-3.06,-1.557 -4.35,-1.976 -14.385,-5.895l0,0.034c-12.545,-4.859 -34.152,-13.227 -53.458,-20.703l-78.407,131.711c-3.294,5.836 -11.699,5.837 -14.994,0.001l-78.529,-131.873l-63.753,24.899c-17.194,7.076 -40.217,29.341 -40.217,62.38l0,73.214c0,7.458 6.046,13.504 13.504,13.504l352.988,0c7.458,0 13.504,-6.046 13.504,-13.504l0,-73.214c-0.002,-30.556 -19.691,-51.922 -36.253,-60.554z"/>
                <path stroke="null" id="svg_53" fill="#b1dbfc"
                      d="m4514.84585,1879.9261l56.336,-99.816l-34.656,32.596c-4.019,4.02 -10.597,4.02 -14.616,0l-13.246,-11.184c-2.088,-2.088 -3.081,-4.866 -3,-7.617l-27.677,0c0.081,2.751 -0.912,5.529 -3,7.617l-13.245,10.154c-4.019,4.02 -10.597,4.02 -14.616,0l-34.926,-31.835l56.509,100.085l46.137,0z"/>
                <path stroke="null" id="svg_54" fill="#ffb1a0"
                      d="m4510.72385,1788.9661l30.413,-34.534c-1.82,-0.705 -3.034,-1.175 -3.484,-1.349c-2.85,-1.102 -4.744,-3.844 -4.752,-6.916l-0.02,-27.532c-26.14,17.105 -59.216,14.794 -82.262,-0.11l0,27.597c0,3.063 -1.473,4.868 -3.168,6.019l-5.198,2.03l30.674,34.795c1.932,1.932 2.925,4.454 3,7l31.797,0c0.076,-2.546 1.069,-5.068 3,-7z"/>
                <path stroke="null" id="svg_55" fill="#ffa68e"
                      d="m4491.78185,1730.5871c-14.834,-0.084 -29.323,-4.405 -41.163,-12.062l0,27.597c0,3.063 -1.473,4.868 -3.168,6.019l-5.198,2.03l30.674,34.795c1.932,1.932 2.925,4.454 3,7l15.855,0l0,-65.379z"/>
                <path stroke="null" id="svg_56" fill="#ff7f87"
                      d="m4504.25885,1821.8921l-25.136,0l-10.704,57.518l15.865,28.1c3.295,5.836 11.7,5.835 14.994,-0.001l15.729,-27.868l-10.748,-57.749z"/>
                <path stroke="null" id="svg_57" fill="#ff656f"
                      d="m4492.11485,1887.1691c-2.829,-5.012 -3.803,-10.86 -2.75,-16.518l9.074,-48.759l-19.316,0l-10.704,57.518l15.865,28.099c3.295,5.836 11.7,5.835 14.994,-0.001l2.16,-3.827l-9.323,-16.512z"/>
                <path stroke="null" id="svg_58" fill="#ff656f"
                      d="m4509.69385,1801.5221c-2.088,-2.088 -4.111,-4.866 -4.03,-7.617l-27.677,0c0.081,2.751 -1.942,5.529 -4.03,7.617l-8.633,8.632l13.102,12.124c0.447,0.414 1.034,0.644 1.644,0.644l23.239,0c0.61,0 1.197,-0.23 1.645,-0.645l13.237,-12.258l-8.497,-8.497z"/>
                <path stroke="null" id="svg_59" fill="#ff4756"
                      d="m4490.20685,1815.5011c-3.095,-2.864 -3.19,-7.727 -0.208,-10.709l3.664,-3.664c1.998,-1.997 3.922,-4.592 4.209,-7.223l-19.884,0c0.081,2.751 -1.942,5.529 -4.03,7.617l-8.633,8.632l13.102,12.124c0.447,0.414 1.034,0.644 1.644,0.644l18.156,0l-8.02,-7.421z"/>
                <path stroke="null" id="svg_60" fill="#dfebfa"
                      d="m4442.25285,1754.1711l-36.498,14.254l6.445,11.415l34.926,34.926c4.02,4.02 10.597,4.02 14.616,0l13.245,-13.245c4.02,-4.019 4.02,-10.597 0,-14.617l-32.734,-32.733z"/>
                <path stroke="null" id="svg_61" fill="#dfebfa"
                      d="m4541.13785,1754.4321l-32.474,32.473c-4.02,4.02 -4.02,10.597 0,14.617l13.245,13.245c4.02,4.02 10.597,4.02 14.616,0l34.656,-34.656l6.504,-11.524c-15.806,-6.122 -30.068,-11.646 -36.547,-14.155z"/>
                <path stroke="null" id="svg_62" fill="#ffcebe"
                      d="m4491.78185,1640.2281c-11.089,0 -21.945,-0.986 -32.497,-2.849l0,23.589c0,31.19 19.552,60.195 51.017,70.582c32.034,-7.855 55.877,-36.798 55.877,-71.218l0,-35.588c-22.792,9.943 -47.94,15.484 -74.397,15.484z"/>
                <g stroke="null" id="svg_63">
                    <path stroke="null" id="svg_64" fill="#ffb1a0"
                          d="m4460.23885,1660.3321l0,-22.79c-14.967,-2.562 -29.327,-6.898 -42.853,-12.798l0,35.588c0,38.328 30.031,73.335 75.458,73.335c7.201,0 14.156,-1.061 20.735,-3.004c-32.793,-9.237 -53.34,-38.638 -53.34,-70.331z"/>
                </g>
                <path stroke="null" id="svg_65" fill="#6353b2"
                      d="m4624.48485,1942.4221l0,-75.886c0,-4.267 -3.459,-7.726 -7.726,-7.726s-7.726,3.459 -7.726,7.726l0,75.886l15.452,0z"/>
                <path stroke="null" id="svg_66" fill="#6353b2"
                      d="m4374.53185,1942.4221l0,-75.886c0,-4.267 -3.459,-7.726 -7.726,-7.726s-7.726,3.459 -7.726,7.726l0,75.886l15.452,0z"/>
                <path stroke="null" id="svg_67" fill="#6e60b8"
                      d="m4501.87485,1571.5341c-6.352,3.183 -13.834,3.183 -20.186,0l-88.826,-44.505l0,59.929c1.126,0.958 2.323,1.843 3.654,2.561c28.357,15.291 60.788,23.994 95.264,23.994s66.907,-8.703 95.264,-23.994c1.331,-0.718 2.529,-1.603 3.654,-2.561l0,-59.93l-88.824,44.506z"/>
                <path stroke="null" id="svg_68" fill="#6353b2"
                      d="m4431.33385,1546.3041l-38.47,-19.275l0,59.929c1.126,0.958 2.323,1.843 3.654,2.561c11.027,5.946 22.676,10.881 34.816,14.71l0,-57.925z"/>
                <path stroke="null" id="svg_69" fill="#9790cc"
                      d="m4587.04585,1587.4591c-28.357,15.291 -60.787,23.993 -95.264,23.993s-66.907,-8.702 -95.264,-23.994c-1.332,-0.718 -2.529,-1.603 -3.655,-2.561l0,18.12c0,7.492 3.997,14.499 10.592,18.055c26.293,14.177 56.36,22.246 88.327,22.246s62.034,-8.069 88.327,-22.246c6.595,-3.556 10.592,-10.563 10.592,-18.055l0,-18.12c-1.126,0.959 -2.323,1.844 -3.655,2.562z"/>
                <path stroke="null" id="svg_70" fill="#8479c2"
                      d="m4431.33385,1602.1691c-12.139,-3.829 -23.789,-8.764 -34.816,-14.71c-1.332,-0.718 -2.529,-1.603 -3.654,-2.561l0,18.12c0,7.492 3.997,14.499 10.592,18.055c8.883,4.79 18.206,8.863 27.879,12.183l0,-31.087l-0.001,0z"/>
                <path stroke="null" id="svg_71" fill="#6353b2"
                      d="m4339.98485,1840.7361c0,-25.254 14.049,-45.082 24.085,-56.03l-22.068,8.619c-17.194,7.076 -40.217,29.341 -40.217,62.38l0,73.214c0,7.458 6.046,13.504 13.504,13.504l24.697,0c-0.001,-35.851 -0.001,-80.23 -0.001,-101.687z"/>
                <path stroke="null" id="svg_72" fill="#9790cc"
                      d="m4629.72585,1496.8671l-127.851,-64.058c-6.352,-3.183 -13.834,-3.183 -20.186,0l-127.851,64.058c-7.335,3.675 -7.335,14.144 0,17.819l127.851,64.058c6.352,3.183 13.834,3.183 20.186,0l127.851,-64.058c7.335,-3.675 7.335,-14.143 0,-17.819z"/>
                <path stroke="null" id="svg_73" fill="#8479c2"
                      d="m4527.22585,1557.3851l-132.66,-66.467c-4.681,-2.346 -6.471,-7.356 -5.394,-11.754l-35.334,17.704c-7.335,3.675 -7.335,14.144 0,17.819l127.851,64.058c6.352,3.183 13.834,3.183 20.186,0l37.889,-18.984c-4.265,0.378 -8.61,-0.407 -12.538,-2.376z"/>
                <g stroke="null" id="svg_74">
                    <path stroke="null" id="svg_75" fill="#6353b2"
                          d="m4635.22685,1602.9791c-4.267,0 -7.726,-3.459 -7.726,-7.726l0,-81.75l-122.491,0c-4.267,0 -7.726,-3.459 -7.726,-7.726s3.459,-7.726 7.726,-7.726l130.217,0c4.267,0 7.726,3.459 7.726,7.726l0,89.475c0.001,4.267 -3.459,7.727 -7.726,7.727z"/>
                </g>
                <g stroke="null" id="svg_76">
                    <g stroke="null" id="svg_77">
                        <path stroke="null" id="svg_78" fill="#fec458"
                              d="m4657.74985,1647.7331l-9.856,-39.663c-2.996,3.71 -7.526,6.131 -12.666,6.131s-9.67,-2.421 -12.666,-6.13l-9.856,39.663c-1.996,7.612 3.747,15.053 11.615,15.053l21.814,0c7.868,-0.001 13.61,-7.442 11.615,-15.054z"/>
                    </g>
                </g>
                <g stroke="null" id="svg_79">
                    <path stroke="null" id="svg_80" fill="#f9ab49"
                          d="m4631.28285,1648.7641l8.78,-35.332c-1.527,0.485 -3.144,0.77 -4.836,0.77c-5.14,0 -9.67,-2.421 -12.666,-6.13l-9.856,39.663c-1.995,7.612 3.747,15.053 11.615,15.053l13.741,0c-5.183,-2.288 -8.332,-8.096 -6.778,-14.024z"/>
                </g>
                <circle stroke="null" id="svg_81" r="16.841" fill="#8479c2" cy="1505.7771" cx="4491.78185"/>
                <circle stroke="null" id="svg_82" r="16.347" fill="#ffe181" cy="1599.9151" cx="4635.22685"/>
                <path stroke="null" id="svg_83" fill="#fec458"
                      d="m4633.47485,1599.9141c0,-6.402 3.689,-11.929 9.049,-14.612c-2.199,-1.1 -4.671,-1.735 -7.297,-1.735c-9.028,0 -16.347,7.318 -16.347,16.346s7.319,16.346 16.347,16.346c2.626,0 5.098,-0.634 7.297,-1.734c-5.36,-2.681 -9.049,-8.209 -9.049,-14.611z"/>
            </g>
        </g>
        <text font-style="normal" font-weight="normal" stroke="#000"
              transform="matrix(1.7038564550458657,0,0,1.784064769744873,-185.6542856104608,-43.36589316278696) "
              xml:space="preserve" text-anchor="start" font-family="'Times New Roman', Times, serif" font-size="16"
              id="svg_85" y="47.36052" x="140.14549" stroke-width="0" fill="#ffffff">TutRes    com</text>
        <g stroke="null" id="svg_212">
            <g stroke="null"
               transform="matrix(0.051535986957083696,0,0,0.06204404416783504,-161.18126286100926,-82.1228912334883) "
               id="svg_91">
                <g stroke="null" id="svg_92">
                    <g stroke="null" id="svg_93">
                        <g stroke="null" id="svg_94">
                            <g stroke="null" id="svg_95">
                                <path stroke="null" id="svg_96" fill="#08b865"
                                      d="m6103.62147,1783.30691c3,-4.277 4.873,-10.316 4.873,-17.014c0,-12.966 -7.008,-23.478 -15.652,-23.478s-15.652,10.511 -15.652,23.478c0,6.698 1.873,12.737 4.873,17.014l21.558,0z"/>
                                <g stroke="null" id="svg_97" fill="#09a755">
                                    <path stroke="null" id="svg_98"
                                          d="m6054.14747,1783.30691l28.462,0c2.7,-6.43 0.253,-15.536 -6.593,-22.381c-8.354,-8.354 -20.081,-10.17 -26.193,-4.058s-4.295,17.839 4.058,26.193c0.087,0.086 0.179,0.161 0.266,0.246z"/>
                                    <path stroke="null" id="svg_99"
                                          d="m6131.53847,1783.30691c0.087,-0.085 0.179,-0.16 0.265,-0.246c8.354,-8.354 10.17,-20.081 4.058,-26.193s-17.839,-4.296 -26.193,4.058c-6.845,6.845 -9.292,15.951 -6.593,22.381l28.463,0z"/>
                                </g>
                            </g>
                            <g stroke="null" id="svg_100" fill="#fedf30">
                                <path stroke="null" id="svg_101"
                                      d="m6079.96547,1782.30691l-43.005,0c-2.672,0 -4.842,2.041 -5.1,4.645c5.38,7.933 10.905,15.764 16.554,23.438c2.142,2.909 1.899,6.907 -0.575,9.505l-15.171,15.938l0.408,0.657c3.758,6.052 7.613,12.077 11.537,18.07l36.352,0l0,-67.839l-1,-4.414z"/>
                                <path stroke="null" id="svg_102"
                                      d="m6153.87647,1854.55991l0,-67.101c0,-2.845 -2.306,-5.151 -5.151,-5.151l-43.005,0l-1,4.449l0,67.804l49.156,0l0,-0.001z"/>
                            </g>
                            <path stroke="null" id="svg_103" fill="#00c27a"
                                  d="m6079.96547,1782.30691l25.754,0l0,72.252l-25.754,0l0,-72.252z"/>
                        </g>
                        <path stroke="null" id="svg_104" fill="#fd4755"
                              d="m6164.75747,1853.55991l-120.805,0c9.238,14.148 18.912,28.111 28.906,41.685c2.617,3.555 2.295,8.469 -0.767,11.685l-24.462,25.698c-1.745,1.833 -4.102,2.844 -6.633,2.844c-2.532,0 -4.889,-1.01 -6.634,-2.844c-12.533,-13.166 -29.447,-20.417 -47.626,-20.417c-10.429,0 -20.818,2.501 -30.045,7.234l-0.544,1.946l0,72.209l1,3.155l207.609,0c2.845,0 5.151,-2.306 5.151,-5.151l0,-132.893c0.001,-2.845 -2.305,-5.151 -5.15,-5.151z"/>
                        <g stroke="null" id="svg_105">
                            <path stroke="null" id="svg_106" fill="#fb2b3a"
                                  d="m5957.14847,1920.33491l0,76.42l37.032,0l0,-83.11c-12.585,-1.452 -25.508,0.78 -37.032,6.69z"/>
                        </g>
                        <g stroke="null" id="svg_107">
                            <path stroke="null" id="svg_108" fill="#fedf30"
                                  d="m6103.50047,1996.75491l66.408,-66.408l0,-36.422l-102.831,102.83l36.423,0z"/>
                        </g>
                    </g>
                    <g stroke="null" id="svg_109">
                        <g stroke="null" id="svg_110">
                            <g stroke="null" id="svg_111">
                                <path stroke="null" id="svg_112" fill="#09a755"
                                      d="m5798.78447,1846.14891c0.087,-0.085 0.179,-0.16 0.266,-0.247c8.354,-8.354 10.17,-20.081 4.058,-26.193s-17.839,-4.296 -26.193,4.058c-6.845,6.845 -9.292,15.951 -6.593,22.382l28.462,0z"/>
                                <path stroke="null" id="svg_113" fill="#08b865"
                                      d="m5746.27447,1846.14891l28.462,0c2.7,-6.43 0.253,-15.536 -6.593,-22.382c-8.354,-8.354 -20.081,-10.17 -26.193,-4.058s-4.296,17.839 4.058,26.193c0.087,0.086 0.179,0.161 0.266,0.247z"/>
                            </g>
                        </g>
                        <g stroke="null" id="svg_114" fill="#fedf30">
                            <path stroke="null" id="svg_115"
                                  d="m5759.65247,1845.14791l-43.005,0c-2.845,0 -5.151,2.306 -5.151,5.151l0,59.375l49.156,0l0,-61.42l-1,-3.106z"/>
                            <path stroke="null" id="svg_116"
                                  d="m5785.40647,1845.14791l-1,1.912l0,37.695l1,0.527c2.281,-1.508 5.01,-2.392 7.944,-2.392c1.987,0 3.919,0.401 5.742,1.192l0.743,0.322l0.47,-0.66c9.014,-12.654 17.733,-25.598 26.017,-38.596l-40.916,0z"/>
                        </g>
                        <g stroke="null" id="svg_117">
                            <path stroke="null" id="svg_118" fill="#fed402"
                                  d="m5739.78047,1908.67491l0,-58.375c0,-2.845 2.306,-5.151 5.151,-5.151l-28.284,0c-2.845,0 -5.151,2.306 -5.151,5.151l0,58.375l28.284,0z"/>
                        </g>
                        <path stroke="null" id="svg_119" fill="#00c27a"
                              d="m5785.40647,1909.67391l0,-0.016l-1.858,-1.718c-2.999,-2.776 -4.651,-6.54 -4.651,-10.598c0,-5.036 2.593,-9.473 6.51,-12.061l0,-40.133l-25.755,0l0,64.526l25.754,0z"/>
                        <g stroke="null" id="svg_120" fill="#fd4755">
                            <path stroke="null" id="svg_121"
                                  d="m5738.72047,1946.76091l0,-33.594l-1,-4.492l-37.629,0c-2.845,0 -5.151,2.306 -5.151,5.151l0,31.936l4.864,1l38.916,0l0,-0.001z"/>
                            <path stroke="null" id="svg_122"
                                  d="m5738.72047,1970.51591l-38.81,0l-4.969,1l0,20.089c0,2.845 2.306,5.151 5.151,5.151l37.629,0l1,-3.364l0,-22.876l-0.001,0z"/>
                            <path stroke="null" id="svg_123"
                                  d="m5908.15547,1919.44491c-9.227,-4.732 -19.616,-7.234 -30.045,-7.234c-18.179,0 -35.093,7.25 -47.625,20.416c-1.746,1.834 -4.102,2.844 -6.634,2.844c-2.531,0 -4.888,-1.01 -6.633,-2.844l-20.279,-21.303c-1.15,0.296 -2.349,0.47 -3.59,0.47c-3.377,0 -6.48,-1.173 -8.943,-3.121l-20.932,0l-1,4.782l0,33.305l132.104,0l14.121,-1l0,-24.37l-0.544,-1.945z"/>
                            <path stroke="null" id="svg_124"
                                  d="m5904.42447,1970.51591l-141.949,0l0,22.659l0.999,3.58l144.226,0l0.999,-3.155l0,-22.084l-4.275,-1z"/>
                        </g>
                        <g stroke="null" id="svg_125" fill="#fb2b3a">
                            <path stroke="null" id="svg_126"
                                  d="m5721.18347,1945.76091l0,-31.936c0,-2.845 2.306,-5.151 5.151,-5.151l-26.243,0c-2.845,0 -5.151,2.306 -5.151,5.151l0,31.936l26.243,0z"/>
                            <path stroke="null" id="svg_127"
                                  d="m5721.18347,1991.60391l0,-20.089l-26.243,0l0,20.089c0,2.845 2.306,5.151 5.151,5.151l26.242,0c-2.844,0 -5.15,-2.306 -5.15,-5.151z"/>
                        </g>
                        <path stroke="null" id="svg_128" fill="#00c27a"
                              d="m5694.94047,1945.76091l213.759,0l0,25.755l-213.759,0l0,-25.755z"/>
                        <g stroke="null" id="svg_129">
                            <path stroke="null" id="svg_130" fill="#46cc8d"
                                  d="m5737.72047,1908.67491l25.755,0l0,88.08l-25.755,0l0,-88.08z"/>
                        </g>
                    </g>
                </g>
                <g stroke="null" id="svg_131">
                    <g stroke="null" id="svg_132">
                        <path stroke="null" id="svg_133" fill="#a44f3e"
                              d="m5939.03647,1932.60691c-1.739,1.828 -4.088,2.835 -6.612,2.835s-4.872,-1.007 -6.612,-2.835c-5.325,-5.594 -11.446,-10.109 -18.113,-13.468l0,77.616l49.449,0l0,-77.616c-6.666,3.359 -12.787,7.874 -18.112,13.468z"/>
                    </g>
                    <g stroke="null" id="svg_134">
                        <path stroke="null" id="svg_135" fill="#883f2e"
                              d="m5925.06647,1933.31691c-5.174,-5.435 -11.063,-9.75 -17.366,-12.982l0,76.42l20.604,0l0,-61.162c-1.183,-0.525 -2.288,-1.278 -3.238,-2.276z"/>
                    </g>
                    <g stroke="null" id="svg_136">
                        <path stroke="null" id="svg_137" fill="#46cc8d"
                              d="m6073.66447,1894.65191c-14.304,-19.429 -27.742,-39.309 -40.302,-59.591l-5.78,6.072c-1.406,1.476 -3.302,2.289 -5.34,2.289s-3.936,-0.813 -5.341,-2.289l-4.489,-4.716c-9.231,-9.698 -21.689,-15.038 -35.078,-15.038s-25.847,5.341 -35.078,15.038l-4.49,4.716c-1.406,1.476 -3.302,2.29 -5.34,2.29s-3.935,-0.813 -5.34,-2.29l-4.489,-4.716c-9.232,-9.698 -21.69,-15.038 -35.079,-15.038s-25.847,5.341 -35.078,15.039l-4.489,4.716c-1.406,1.476 -3.302,2.29 -5.34,2.29s-3.935,-0.813 -5.34,-2.29l-5.781,-6.073c-10.276,16.592 -21.149,32.911 -32.593,48.939c5.224,2.179 8.908,7.337 8.908,13.343c0,7.134 -5.201,13.063 -12.008,14.23l20.7,21.745c4.004,4.206 10.712,4.206 14.715,0c25.535,-26.825 68.321,-26.825 93.856,0c4.004,4.206 10.712,4.206 14.716,0l0.001,-0.001c25.535,-26.825 68.321,-26.825 93.856,0l0.001,0.001c4.003,4.206 10.712,4.206 14.716,0l24.462,-25.698c3.376,-3.55 3.749,-9.021 0.844,-12.968z"/>
                        <path stroke="null" id="svg_138" fill="#00c27a"
                              d="m5833.42247,1894.65191c17.164,-23.313 33.081,-47.276 47.726,-71.804c-10.292,1.387 -20.214,6.139 -27.964,14.28l-4.489,4.716c-3.312,3.479 -8.861,3.479 -12.173,0l-5.592,-5.874c-10.109,16.28 -20.798,32.295 -32.034,48.03c5.224,2.18 8.907,7.337 8.907,13.342c0,7.134 -5.201,13.063 -12.008,14.23l20.7,21.745c4.004,4.206 10.712,4.206 14.715,0c4.769,-5.01 10.14,-9.082 15.888,-12.221l-12.829,-13.477c-3.379,-3.55 -3.753,-9.02 -0.847,-12.967z"/>
                        <g stroke="null" id="svg_139">
                            <path stroke="null" id="svg_140" fill="#08b865"
                                  d="m6049.22047,1809.79791c-12.27,-16.669 -23.765,-33.743 -34.483,-51.17l-5.507,5.786c-1.099,1.154 -2.582,1.79 -4.176,1.79s-3.076,-0.636 -4.175,-1.79l-4.849,-5.094c-7.182,-7.545 -16.874,-11.7 -27.291,-11.7s-20.109,4.155 -27.291,11.7l-4.849,5.094c-1.099,1.154 -2.581,1.79 -4.175,1.79s-3.076,-0.636 -4.175,-1.79l-4.849,-5.093c-7.182,-7.545 -16.874,-11.7 -27.291,-11.7s-20.109,4.155 -27.291,11.7l-4.848,5.093c-1.099,1.154 -2.581,1.79 -4.176,1.79c-1.594,0 -3.076,-0.636 -4.175,-1.79l-5.508,-5.786c-10.718,17.427 -22.213,34.501 -34.483,51.17c-2.42,3.288 -2.159,7.83 0.656,10.788l20.237,21.259c3.312,3.479 8.862,3.479 12.174,0l4.489,-4.716c18.681,-19.625 49.983,-19.625 68.664,0l4.489,4.716c3.312,3.479 8.861,3.479 12.174,0l4.489,-4.716c18.681,-19.625 49.983,-19.625 68.664,0l4.489,4.716c3.312,3.479 8.861,3.479 12.173,0l20.237,-21.259c2.816,-2.958 3.077,-7.5 0.657,-10.788z"/>
                        </g>
                        <g stroke="null" id="svg_141">
                            <path stroke="null" id="svg_142" fill="#09a755"
                                  d="m5858.87147,1809.79691c9.467,-12.861 18.463,-25.966 27.003,-39.286c-5.541,-3.184 -9.704,-8.492 -11.37,-14.818c-1.741,1.274 -3.396,2.717 -4.939,4.337l-4.848,5.093c-2.678,2.814 -7.166,2.814 -9.844,0l-5.319,-5.588c-10.558,17.112 -21.868,33.881 -33.925,50.261c-2.42,3.288 -2.159,7.83 0.656,10.788l20.237,21.259c3.312,3.479 8.862,3.479 12.174,0l4.489,-4.716c3.849,-4.043 8.238,-7.239 12.937,-9.617l-6.594,-6.927c-2.816,-2.955 -3.077,-7.498 -0.657,-10.786z"/>
                        </g>
                        <g stroke="null" id="svg_143">
                            <path stroke="null" id="svg_144" fill="#00c27a"
                                  d="m6026.87047,1739.20891c-12.617,-17.14 -24.225,-34.807 -34.803,-52.922l-4.044,4.248c-0.744,0.782 -1.749,1.213 -2.829,1.213c-1.081,0 -2.086,-0.431 -2.83,-1.213l-3.001,-3.152c-5.409,-5.683 -12.708,-8.812 -20.553,-8.812c-7.846,0 -15.145,3.129 -20.554,8.812l-3.001,3.152c-0.744,0.782 -1.75,1.213 -2.83,1.213s-2.086,-0.431 -2.83,-1.213l-3,-3.152c-5.409,-5.683 -12.709,-8.812 -20.554,-8.812c-7.846,0 -15.145,3.129 -20.554,8.812l-3.001,3.152c-0.744,0.782 -1.749,1.213 -2.83,1.213c-1.079,0 -2.085,-0.431 -2.829,-1.213l-4.044,-4.248c-10.579,18.116 -22.186,35.782 -34.803,52.922c-1.958,2.659 -1.746,6.332 0.53,8.724l16.364,17.191c2.678,2.814 7.166,2.813 9.844,0l4.848,-5.093c14.444,-15.173 38.645,-15.174 53.089,0l4.848,5.093c2.678,2.814 7.166,2.814 9.844,0l4.849,-5.093c14.444,-15.173 38.645,-15.173 53.089,0l4.848,5.093c2.678,2.814 7.166,2.814 9.844,0l16.364,-17.191c2.276,-2.392 2.487,-6.065 0.529,-8.724z"/>
                        </g>
                        <g stroke="null" id="svg_145">
                            <path stroke="null" id="svg_146" fill="#08b865"
                                  d="m5873.70447,1749.51191c0,-10.705 6.951,-19.781 16.585,-22.977c10.007,-14.359 19.33,-29.06 27.941,-44.069c-10.424,-5.19 -23.482,-3.319 -31.997,5.627l-3.001,3.152c-1.946,2.044 -5.206,2.044 -7.152,0l-3.838,-4.032c-10.433,17.792 -21.861,35.147 -34.263,51.995c-1.958,2.659 -1.746,6.332 0.53,8.724l16.364,17.191c2.678,2.814 7.166,2.813 9.844,0l4.848,-5.093c1.542,-1.62 3.198,-3.061 4.94,-4.333c-0.521,-1.975 -0.801,-4.047 -0.801,-6.185z"/>
                        </g>
                        <g stroke="null" id="svg_147">
                            <path stroke="null" id="svg_148" fill="#46cc8d"
                                  d="m6001.04447,1672.41691c-26.233,-35.638 -46.486,-74.39 -60.177,-115.07l-5.767,-3.032c-0.823,-0.432 -1.747,-0.66 -2.676,-0.66s-1.853,0.228 -2.675,0.66l-5.768,3.032c-13.691,40.679 -33.944,79.432 -60.177,115.069c-1.422,1.932 -1.27,4.601 0.385,6.339l11.89,12.49c1.946,2.044 5.206,2.044 7.152,0l3.001,-3.152c10.778,-11.323 28.837,-11.323 39.615,0l3.001,3.152c1.946,2.044 5.206,2.044 7.152,0l3.001,-3.152c10.778,-11.322 28.837,-11.322 39.615,0l3.001,3.152c1.946,2.044 5.206,2.044 7.152,0l11.889,-12.49c1.655,-1.738 1.808,-4.406 0.386,-6.338z"/>
                        </g>
                        <g stroke="null" id="svg_149">
                            <path stroke="null" id="svg_150" fill="#00c27a"
                                  d="m5948.62347,1578.47691c-2.605,-6.518 -5.03,-13.095 -7.29,-19.721l-6.712,-3.529c-1.375,-0.723 -3.018,-0.723 -4.393,0l-6.722,3.534c-13.683,40.164 -33.773,78.431 -59.701,113.656c-1.422,1.932 -1.27,4.601 0.385,6.339l11.89,12.49c1.946,2.044 5.206,2.044 7.152,0l3.001,-3.152c3.471,-3.646 7.698,-6.111 12.192,-7.409l-1.838,-1.93c-1.655,-1.738 -1.807,-4.406 -0.385,-6.339c21.653,-29.414 39.237,-60.95 52.421,-93.939z"/>
                        </g>
                    </g>
                    <g stroke="null" id="svg_151">
                        <path stroke="null" id="svg_152" fill="#fedf30"
                              d="m5936.65747,1487.38591l9.415,19.077c0.688,1.393 2.017,2.359 3.554,2.582l21.053,3.059c3.871,0.563 5.417,5.32 2.616,8.051l-15.234,14.85c-1.112,1.084 -1.62,2.647 -1.357,4.178l3.596,20.968c0.661,3.856 -3.386,6.796 -6.849,4.976l-18.83,-9.9c-1.375,-0.723 -3.018,-0.723 -4.393,0l-18.83,9.9c-3.463,1.82 -7.51,-1.12 -6.849,-4.976l3.596,-20.968c0.263,-1.531 -0.245,-3.093 -1.357,-4.178l-15.235,-14.85c-2.801,-2.731 -1.256,-7.488 2.616,-8.051l21.053,-3.059c1.537,-0.223 2.866,-1.189 3.554,-2.582l9.415,-19.077c1.732,-3.508 6.734,-3.508 8.466,0z"/>
                    </g>
                    <g stroke="null" id="svg_153">
                        <g stroke="null" id="svg_154">
                            <path stroke="null" id="svg_155" fill="#fed402"
                                  d="m5926.46247,1552.42391l3.596,-20.968c0.263,-1.531 -0.245,-3.093 -1.358,-4.178l-15.234,-14.85c-0.864,-0.843 -1.312,-1.878 -1.408,-2.924l-17.889,2.599c-3.871,0.563 -5.418,5.32 -2.616,8.051l15.234,14.85c1.113,1.084 1.62,2.647 1.358,4.178l-3.596,20.968c-0.661,3.856 3.386,6.796 6.849,4.976l16.356,-8.599c-1.004,-1.012 -1.571,-2.473 -1.292,-4.103z"/>
                        </g>
                    </g>
                    <g stroke="null" id="svg_156">
                        <g stroke="null" id="svg_157">
                            <circle stroke="null" id="svg_158" r="15.453" fill="#fe860a" cy="1637.73691"
                                    cx="5974.14647"/>
                        </g>
                        <g stroke="null" id="svg_159">
                            <path stroke="null" id="svg_160" fill="#fe7701"
                                  d="m5972.60147,1637.73691c0,-6.03 3.462,-11.24 8.499,-13.786c-2.092,-1.057 -4.449,-1.667 -6.954,-1.667c-8.534,0 -15.453,6.918 -15.453,15.453s6.918,15.453 15.453,15.453c2.504,0 4.862,-0.609 6.954,-1.667c-5.037,-2.546 -8.499,-7.756 -8.499,-13.786z"/>
                        </g>
                        <g stroke="null" id="svg_161">
                            <circle stroke="null" id="svg_162" r="15.453" fill="#fd4755" cy="1637.73691"
                                    cx="5890.70247"/>
                        </g>
                        <g stroke="null" id="svg_163">
                            <path stroke="null" id="svg_164" fill="#fb2b3a"
                                  d="m5888.12647,1637.73691c0,-6.233 3.699,-11.591 9.014,-14.034c-1.962,-0.902 -4.138,-1.418 -6.439,-1.418c-8.534,0 -15.453,6.918 -15.453,15.453s6.918,15.453 15.453,15.453c2.301,0 4.477,-0.517 6.439,-1.418c-5.315,-2.445 -9.014,-7.803 -9.014,-14.036z"/>
                        </g>
                    </g>
                    <g stroke="null" id="svg_165">
                        <g stroke="null" id="svg_166">
                            <g stroke="null" id="svg_167">
                                <circle stroke="null" id="svg_168" r="15.453" fill="#fedf30" cy="1912.79491"
                                        cx="5880.40047"/>
                            </g>
                            <g stroke="null" id="svg_169">
                                <path stroke="null" id="svg_170" fill="#fed402"
                                      d="m5878.85547,1912.79491c0,-6.03 3.462,-11.24 8.499,-13.786c-2.092,-1.057 -4.449,-1.667 -6.954,-1.667c-8.534,0 -15.453,6.918 -15.453,15.453s6.918,15.453 15.453,15.453c2.504,0 4.862,-0.609 6.954,-1.667c-5.038,-2.546 -8.499,-7.756 -8.499,-13.786z"/>
                            </g>
                            <g stroke="null" id="svg_171">
                                <circle stroke="null" id="svg_172" r="15.453" fill="#fedf30" cy="1912.79491"
                                        cx="5984.44847"/>
                            </g>
                            <g stroke="null" id="svg_173">
                                <path stroke="null" id="svg_174" fill="#fed402"
                                      d="m5982.90347,1912.79491c0,-6.03 3.462,-11.24 8.499,-13.786c-2.092,-1.057 -4.449,-1.667 -6.954,-1.667c-8.534,0 -15.453,6.918 -15.453,15.453s6.918,15.453 15.453,15.453c2.504,0 4.862,-0.609 6.954,-1.667c-5.037,-2.546 -8.499,-7.756 -8.499,-13.786z"/>
                            </g>
                        </g>
                        <g stroke="null" id="svg_175">
                            <g stroke="null" id="svg_176">
                                <circle stroke="null" id="svg_177" r="15.453" fill="#fe860a" cy="1897.34291"
                                        cx="6071.49847"/>
                            </g>
                            <g stroke="null" id="svg_178">
                                <path stroke="null" id="svg_179" fill="#fe7701"
                                      d="m6069.43847,1897.34291c0,-6.132 3.581,-11.413 8.757,-13.91c-2.028,-0.978 -4.294,-1.543 -6.696,-1.543c-8.534,0 -15.453,6.918 -15.453,15.453s6.918,15.453 15.453,15.453c2.403,0 4.668,-0.564 6.696,-1.543c-5.176,-2.497 -8.757,-7.779 -8.757,-13.91z"/>
                            </g>
                            <g stroke="null" id="svg_180">
                                <circle stroke="null" id="svg_181" r="15.453" fill="#fe860a" cy="1897.34291"
                                        cx="5793.35047"/>
                            </g>
                            <g stroke="null" id="svg_182">
                                <path stroke="null" id="svg_183" fill="#fe7701"
                                      d="m5791.28947,1897.34291c0,-6.132 3.58,-11.413 8.757,-13.91c-2.028,-0.978 -4.294,-1.543 -6.696,-1.543c-8.534,0 -15.453,6.918 -15.453,15.453s6.918,15.453 15.453,15.453c2.403,0 4.668,-0.564 6.696,-1.543c-5.176,-2.497 -8.757,-7.779 -8.757,-13.91z"/>
                            </g>
                        </g>
                    </g>
                    <g stroke="null" id="svg_184">
                        <circle stroke="null" id="svg_185" r="24.209" fill="#fd4755" cy="1749.51191" cx="5897.91347"/>
                    </g>
                    <g stroke="null" id="svg_186">
                        <path stroke="null" id="svg_187" fill="#fb2b3a"
                              d="m5894.30747,1749.51191c0,-9.686 5.69,-18.039 13.907,-21.91c-3.126,-1.473 -6.617,-2.3 -10.302,-2.3c-13.37,0 -24.209,10.839 -24.209,24.209s10.839,24.209 24.209,24.209c3.685,0 7.175,-0.827 10.302,-2.3c-8.217,-3.87 -13.907,-12.223 -13.907,-21.908z"/>
                    </g>
                    <g stroke="null" id="svg_188">
                        <circle stroke="null" id="svg_189" r="24.209" fill="#fedf30" cy="1818.53391" cx="5977.23747"/>
                    </g>
                    <g stroke="null" id="svg_190">
                        <path stroke="null" id="svg_191" fill="#fed402"
                              d="m5973.63147,1818.53391c0,-9.686 5.69,-18.039 13.907,-21.91c-3.126,-1.473 -6.617,-2.3 -10.302,-2.3c-13.37,0 -24.209,10.839 -24.209,24.209s10.839,24.209 24.209,24.209c3.685,0 7.175,-0.827 10.302,-2.3c-8.217,-3.869 -13.907,-12.223 -13.907,-21.908z"/>
                    </g>
                    <g stroke="null" id="svg_192">
                        <g stroke="null" id="svg_193">
                            <circle stroke="null" id="svg_194" r="7.5" fill="#fff" cy="1865.92191" cx="5888.12647"/>
                        </g>
                        <g stroke="null" id="svg_195">
                            <circle stroke="null" id="svg_196" r="7.5" fill="#fff" cy="1865.92191" cx="5976.72247"/>
                        </g>
                        <g stroke="null" id="svg_197">
                            <g stroke="null" id="svg_198">
                                <circle stroke="null" id="svg_199" r="7.5" fill="#fff" cy="1886.52591" cx="6025.65547"/>
                            </g>
                            <g stroke="null" id="svg_200">
                                <circle stroke="null" id="svg_201" r="7.5" fill="#fff" cy="1886.52591" cx="5839.19347"/>
                            </g>
                        </g>
                        <g stroke="null" id="svg_202">
                            <circle stroke="null" id="svg_203" r="7.5" fill="#fff" cy="1895.79691" cx="5932.42447"/>
                        </g>
                        <g stroke="null" id="svg_204">
                            <circle stroke="null" id="svg_205" r="7.5" fill="#fedf30" cy="1715.51591" cx="5959.72447"/>
                        </g>
                        <g stroke="null" id="svg_206">
                            <circle stroke="null" id="svg_207" r="7.5" fill="#fedf30" cy="1795.86991" cx="5867.00747"/>
                        </g>
                        <g stroke="null" id="svg_208">
                            <circle stroke="null" id="svg_209" r="7.5" fill="#fedf30" cy="1795.86991" cx="5931.90947"/>
                        </g>
                        <g stroke="null" id="svg_210">
                            <circle stroke="null" id="svg_211" r="7.5" fill="#fedf30" cy="1615.58791" cx="5932.42447"/>
                        </g>
                    </g>
                </g>
            </g>
        </g>
    </g>
</svg>