<svg width="210" height="64" xmlns="http://www.w3.org/2000/svg">
    <!-- Created with Method Draw - http://github.com/duopixel/Method-Draw/ -->

    <g>
        <title>background</title>
        <rect fill="none" id="canvas_background" height="66" width="212" y="-1" x="-1"/>
        <g display="none" overflow="visible" y="0" x="0" height="100%" width="100%" id="canvasGrid">
            <rect fill="url(#gridpattern)" stroke-width="0" y="0" x="0" height="100%" width="100%"/>
        </g>
    </g>
    <g>
        <title>Layer 1</title>
        <!-- Created with Method Draw - http://github.com/duopixel/Method-Draw/ -->
        <!-- Created with Method Draw - http://github.com/duopixel/Method-Draw/ -->
        <g stroke="null" id="svg_182">
            <g stroke="null"
               transform="matrix(1.2739435360367568,0,0,1.2232499731017297,-990.3268347360399,-285.04217158790567) "
               id="svg_179">
                <title stroke="null" transform="translate(754.7922973632812,0) translate(0,230.03192138671875) ">
                    background
                </title>
                <rect stroke="null" x="753.7923" y="229.03192" width="212" height="66" id="svg_177" fill="none"/>
                <g stroke="null" id="svg_176" display="none">
                    <rect stroke="null" id="svg_180" width="210" height="64" x="754.7923" y="230.03192" stroke-width="0"
                          fill="url(#gridpattern)"/>
                </g>
            </g>
            <g stroke="null"
               transform="matrix(1.2739435360367568,0,0,1.2232499731017297,-990.3268347360399,-285.04217158790567) "
               id="svg_181">
                <title stroke="null" transform="translate(754.7922973632812,0) translate(0,230.03192138671875) ">Layer
                    1
                </title>
                <!-- Created with Method Draw - http://github.com/duopixel/Method-Draw/ -->
                <g stroke="null" id="svg_138">
                    <g stroke="null" id="svg_139"
                       transform="matrix(0.04463222348875711,0,0,0.04406904711263904,-213.32196659118068,-63.4200496567062) ">
                        <path stroke="null"
                              d="m24565.97444,7244.50443c-1.65,4.648 -4.917,6.577 -9.38,8.983c-4.532,2.444 -11.244,4.692 -15.99,6.763l0,34.558c0,0.653 -0.032,1.298 -0.049,1.946c18.873,2.007 36.572,-11.814 36.572,-28.711c-0.001,-9.155 -4.277,-17.886 -11.153,-23.539z"
                              fill="#ffb1a0" id="svg_175"/>
                        <path stroke="null"
                              d="m24562.49144,7249.69743c-1.609,1.429 -3.592,2.547 -5.897,3.79c-4.532,2.444 -11.244,4.692 -15.991,6.763l0,34.558c0,0.653 -0.032,1.298 -0.049,1.946c7.93,0.843 15.647,-1.115 21.937,-4.916l0,-42.141z"
                              fill="#ffa68e" id="svg_174"/>
                        <path stroke="null"
                              d="m24395.93144,7260.25043c-4.747,-2.07 -11.458,-4.319 -15.99,-6.763c-4.228,-2.28 -7.38,-3.921 -9.104,-8.255c-6.789,5.517 -11.428,13.894 -11.428,22.909c0,16.852 17.679,30.676 36.57,28.602c-0.017,-0.645 -0.047,-1.288 -0.047,-1.935l0,-34.558l-0.001,0z"
                              fill="#ffb1a0" id="svg_173"/>
                        <path stroke="null"
                              d="m24395.93144,7291.94543c-8.731,-5.219 -14.726,-13.995 -14.726,-23.803c0,-4.444 1.132,-8.731 3.088,-12.599c-1.562,-0.67 -3.052,-1.353 -4.353,-2.055c-4.227,-2.28 -7.38,-3.921 -9.103,-8.255c-6.789,5.517 -11.428,13.894 -11.428,22.909c0,16.852 17.679,30.676 36.57,28.602c-0.017,-0.645 -0.047,-1.288 -0.047,-1.935l0,-2.864l-0.001,0z"
                              fill="#ffa68e" id="svg_172"/>
                        <path stroke="null"
                              d="m24622.01344,7429.62743c-3.06,-1.557 -4.35,-1.976 -14.385,-5.895l0,0.034c-12.545,-4.859 -34.152,-13.227 -53.458,-20.703l-78.407,131.711c-3.294,5.836 -11.699,5.837 -14.994,0.001l-78.529,-131.873l-63.753,24.899c-17.194,7.076 -40.217,29.341 -40.217,62.38l0,73.214c0,7.458 6.046,13.504 13.504,13.504l352.988,0c7.458,0 13.504,-6.046 13.504,-13.504l0,-73.214c-0.002,-30.556 -19.691,-51.922 -36.253,-60.554z"
                              fill="#6e60b8" id="svg_171"/>
                        <path stroke="null"
                              d="m24491.33144,7514.40243l56.336,-99.816l-34.656,32.596c-4.019,4.02 -10.597,4.02 -14.616,0l-13.246,-11.184c-2.088,-2.088 -3.081,-4.866 -3,-7.617l-27.677,0c0.081,2.751 -0.912,5.529 -3,7.617l-13.245,10.154c-4.019,4.02 -10.597,4.02 -14.616,0l-34.926,-31.835l56.509,100.085l46.137,0z"
                              fill="#b1dbfc" id="svg_170"/>
                        <path stroke="null"
                              d="m24487.20944,7423.44243l30.413,-34.534c-1.82,-0.705 -3.034,-1.175 -3.484,-1.349c-2.85,-1.102 -4.744,-3.844 -4.752,-6.916l-0.02,-27.532c-26.14,17.105 -59.216,14.794 -82.262,-0.11l0,27.597c0,3.063 -1.473,4.868 -3.168,6.019l-5.198,2.03l30.674,34.795c1.932,1.932 2.925,4.454 3,7l31.797,0c0.076,-2.546 1.069,-5.068 3,-7z"
                              fill="#ffb1a0" id="svg_169"/>
                        <path stroke="null"
                              d="m24468.26744,7365.06343c-14.834,-0.084 -29.323,-4.405 -41.163,-12.062l0,27.597c0,3.063 -1.473,4.868 -3.168,6.019l-5.198,2.03l30.674,34.795c1.932,1.932 2.925,4.454 3,7l15.855,0l0,-65.379z"
                              fill="#ffa68e" id="svg_168"/>
                        <path stroke="null"
                              d="m24480.74444,7456.36843l-25.136,0l-10.704,57.518l15.865,28.1c3.295,5.836 11.7,5.835 14.994,-0.001l15.729,-27.868l-10.748,-57.749z"
                              fill="#ff7f87" id="svg_167"/>
                        <path stroke="null"
                              d="m24468.60044,7521.64543c-2.829,-5.012 -3.803,-10.86 -2.75,-16.518l9.074,-48.759l-19.316,0l-10.704,57.518l15.865,28.099c3.295,5.836 11.7,5.835 14.994,-0.001l2.16,-3.827l-9.323,-16.512z"
                              fill="#ff656f" id="svg_166"/>
                        <path stroke="null"
                              d="m24486.17944,7435.99843c-2.088,-2.088 -4.111,-4.866 -4.03,-7.617l-27.677,0c0.081,2.751 -1.942,5.529 -4.03,7.617l-8.633,8.632l13.102,12.124c0.447,0.414 1.034,0.644 1.644,0.644l23.239,0c0.61,0 1.197,-0.23 1.645,-0.645l13.237,-12.258l-8.497,-8.497z"
                              fill="#ff656f" id="svg_165"/>
                        <path stroke="null"
                              d="m24466.69244,7449.97743c-3.095,-2.864 -3.19,-7.727 -0.208,-10.709l3.664,-3.664c1.998,-1.997 3.922,-4.592 4.209,-7.223l-19.884,0c0.081,2.751 -1.942,5.529 -4.03,7.617l-8.633,8.632l13.102,12.124c0.447,0.414 1.034,0.644 1.644,0.644l18.156,0l-8.02,-7.421z"
                              fill="#ff4756" id="svg_164"/>
                        <path stroke="null"
                              d="m24418.73844,7388.64743l-36.498,14.254l6.445,11.415l34.926,34.926c4.02,4.02 10.597,4.02 14.616,0l13.245,-13.245c4.02,-4.019 4.02,-10.597 0,-14.617l-32.734,-32.733z"
                              fill="#dfebfa" id="svg_163"/>
                        <path stroke="null"
                              d="m24517.62344,7388.90843l-32.474,32.473c-4.02,4.02 -4.02,10.597 0,14.617l13.245,13.245c4.02,4.02 10.597,4.02 14.616,0l34.656,-34.656l6.504,-11.524c-15.806,-6.122 -30.068,-11.646 -36.547,-14.155z"
                              fill="#dfebfa" id="svg_162"/>
                        <path stroke="null"
                              d="m24468.26744,7274.70443c-11.089,0 -21.945,-0.986 -32.497,-2.849l0,23.589c0,31.19 19.552,60.195 51.017,70.582c32.034,-7.855 55.877,-36.798 55.877,-71.218l0,-35.588c-22.792,9.943 -47.94,15.484 -74.397,15.484z"
                              fill="#ffcebe" id="svg_161"/>
                        <g stroke="null" id="svg_159">
                            <path stroke="null"
                                  d="m24436.72444,7294.80843l0,-22.79c-14.967,-2.562 -29.327,-6.898 -42.853,-12.798l0,35.588c0,38.328 30.031,73.335 75.458,73.335c7.201,0 14.156,-1.061 20.735,-3.004c-32.793,-9.237 -53.34,-38.638 -53.34,-70.331z"
                                  fill="#ffb1a0" id="svg_160"/>
                        </g>
                        <path stroke="null"
                              d="m24600.97044,7576.89843l0,-75.886c0,-4.267 -3.459,-7.726 -7.726,-7.726s-7.726,3.459 -7.726,7.726l0,75.886l15.452,0z"
                              fill="#6353b2" id="svg_158"/>
                        <path stroke="null"
                              d="m24351.01744,7576.89843l0,-75.886c0,-4.267 -3.459,-7.726 -7.726,-7.726s-7.726,3.459 -7.726,7.726l0,75.886l15.452,0z"
                              fill="#6353b2" id="svg_157"/>
                        <path stroke="null"
                              d="m24478.36044,7206.01043c-6.352,3.183 -13.834,3.183 -20.186,0l-88.826,-44.505l0,59.929c1.126,0.958 2.323,1.843 3.654,2.561c28.357,15.291 60.788,23.994 95.264,23.994s66.907,-8.703 95.264,-23.994c1.331,-0.718 2.529,-1.603 3.654,-2.561l0,-59.93l-88.824,44.506z"
                              fill="#6e60b8" id="svg_156"/>
                        <path stroke="null"
                              d="m24407.81944,7180.78043l-38.47,-19.275l0,59.929c1.126,0.958 2.323,1.843 3.654,2.561c11.027,5.946 22.676,10.881 34.816,14.71l0,-57.925z"
                              fill="#6353b2" id="svg_155"/>
                        <path stroke="null"
                              d="m24563.53144,7221.93543c-28.357,15.291 -60.787,23.993 -95.264,23.993s-66.907,-8.702 -95.264,-23.994c-1.332,-0.718 -2.529,-1.603 -3.655,-2.561l0,18.12c0,7.492 3.997,14.499 10.592,18.055c26.293,14.177 56.36,22.246 88.327,22.246s62.034,-8.069 88.327,-22.246c6.595,-3.556 10.592,-10.563 10.592,-18.055l0,-18.12c-1.126,0.959 -2.323,1.844 -3.655,2.562z"
                              fill="#9790cc" id="svg_154"/>
                        <path stroke="null"
                              d="m24407.81944,7236.64543c-12.139,-3.829 -23.789,-8.764 -34.816,-14.71c-1.332,-0.718 -2.529,-1.603 -3.654,-2.561l0,18.12c0,7.492 3.997,14.499 10.592,18.055c8.883,4.79 18.206,8.863 27.879,12.183l0,-31.087l-0.001,0z"
                              fill="#8479c2" id="svg_153"/>
                        <path stroke="null"
                              d="m24316.47044,7475.21243c0,-25.254 14.049,-45.082 24.085,-56.03l-22.068,8.619c-17.194,7.076 -40.217,29.341 -40.217,62.38l0,73.214c0,7.458 6.046,13.504 13.504,13.504l24.697,0c-0.001,-35.851 -0.001,-80.23 -0.001,-101.687z"
                              fill="#6353b2" id="svg_152"/>
                        <path stroke="null"
                              d="m24606.21144,7131.34343l-127.851,-64.058c-6.352,-3.183 -13.834,-3.183 -20.186,0l-127.851,64.058c-7.335,3.675 -7.335,14.144 0,17.819l127.851,64.058c6.352,3.183 13.834,3.183 20.186,0l127.851,-64.058c7.335,-3.675 7.335,-14.143 0,-17.819z"
                              fill="#9790cc" id="svg_151"/>
                        <path stroke="null"
                              d="m24503.71144,7191.86143l-132.66,-66.467c-4.681,-2.346 -6.471,-7.356 -5.394,-11.754l-35.334,17.704c-7.335,3.675 -7.335,14.144 0,17.819l127.851,64.058c6.352,3.183 13.834,3.183 20.186,0l37.889,-18.984c-4.265,0.378 -8.61,-0.407 -12.538,-2.376z"
                              fill="#8479c2" id="svg_150"/>
                        <g stroke="null" id="svg_148">
                            <path stroke="null"
                                  d="m24611.71244,7237.45543c-4.267,0 -7.726,-3.459 -7.726,-7.726l0,-81.75l-122.491,0c-4.267,0 -7.726,-3.459 -7.726,-7.726s3.459,-7.726 7.726,-7.726l130.217,0c4.267,0 7.726,3.459 7.726,7.726l0,89.475c0.001,4.267 -3.459,7.727 -7.726,7.727z"
                                  fill="#6353b2" id="svg_149"/>
                        </g>
                        <g stroke="null" id="svg_145">
                            <g stroke="null" id="svg_146">
                                <path stroke="null"
                                      d="m24634.23544,7282.20943l-9.856,-39.663c-2.996,3.71 -7.526,6.131 -12.666,6.131s-9.67,-2.421 -12.666,-6.13l-9.856,39.663c-1.996,7.612 3.747,15.053 11.615,15.053l21.814,0c7.868,-0.001 13.61,-7.442 11.615,-15.054z"
                                      fill="#fec458" id="svg_147"/>
                            </g>
                        </g>
                        <g stroke="null" id="svg_143">
                            <path stroke="null"
                                  d="m24607.76844,7283.24043l8.78,-35.332c-1.527,0.485 -3.144,0.77 -4.836,0.77c-5.14,0 -9.67,-2.421 -12.666,-6.13l-9.856,39.663c-1.995,7.612 3.747,15.053 11.615,15.053l13.741,0c-5.183,-2.288 -8.332,-8.096 -6.778,-14.024z"
                                  fill="#f9ab49" id="svg_144"/>
                        </g>
                        <circle stroke="null" cx="24468.26744" cy="7140.25343" fill="#8479c2" r="16.841" id="svg_142"/>
                        <circle stroke="null" cx="24611.71244" cy="7234.39143" fill="#ffe181" r="16.347" id="svg_141"/>
                        <path stroke="null"
                              d="m24609.96044,7234.39043c0,-6.402 3.689,-11.929 9.049,-14.612c-2.199,-1.1 -4.671,-1.735 -7.297,-1.735c-9.028,0 -16.347,7.318 -16.347,16.346s7.319,16.346 16.347,16.346c2.626,0 5.098,-0.634 7.297,-1.734c-5.36,-2.681 -9.049,-8.209 -9.049,-14.611z"
                              fill="#fec458" id="svg_140"/>
                    </g>
                </g>
                <text stroke="#000" fill="#ffffff" stroke-width="0" x="777.01494" y="270.22909" id="svg_137"
                      font-size="32" font-family="serif" text-anchor="start" xml:space="preserve" font-weight="normal"
                      font-style="normal">TutRes</text>
                <text stroke="#000" fill="#ffffff" stroke-width="0" x="889.46777" y="270.22909" id="svg_136"
                      font-size="30" font-family="serif" text-anchor="start" xml:space="preserve" font-weight="normal"
                      font-style="normal">com</text>
            </g>
        </g>
    </g>
</svg>