<svg width="177" height="49" xmlns="http://www.w3.org/2000/svg">
    <!-- Created with Method Draw - http://github.com/duopixel/Method-Draw/ -->
    <defs>
        <linearGradient y2="0.0026" x2="1" y1="1" x1="0" id="svg_43">
            <stop offset="0.12891" stop-opacity="0.99609" stop-color="#47f870"/>
            <stop offset="1" stop-opacity="0.99609" stop-color="#9138f6"/>
        </linearGradient>
    </defs>
    <g>
        <title>background</title>
        <rect fill="none" id="canvas_background" height="51" width="179" y="-1" x="-1"/>
        <g display="none" overflow="visible" y="0" x="0" height="100%" width="100%" id="canvasGrid">
            <rect fill="url(#gridpattern)" stroke-width="0" y="0" x="0" height="100%" width="100%"/>
        </g>
    </g>
    <g>
        <title>Layer 1</title>
        <linearGradient y2="0.30669" y1="1.13684" x2="0.38737" x1="0.8444" id="svg_7">
            <stop stop-color="#c6d1ff" offset="0"/>
            <stop stop-color="#e6d5f4" offset="0.5834"/>
            <stop stop-color="#ffd9ec" offset="0.997"/>
        </linearGradient>
        <linearGradient y2="1" y1="0" x2="0.5" x1="0.5" id="svg_6">
            <stop stop-opacity="0" stop-color="#ff7eb8" offset="0.0028"/>
            <stop stop-opacity="0.6" stop-color="#ff7eb8" offset="1"/>
        </linearGradient>
        <text stroke="#000" font-style="normal" font-weight="normal" xml:space="preserve" text-anchor="start"
              font-family="serif" font-size="30" id="svg_42" y="33.98945" x="2.6298" stroke-width="0"
              fill="url(#svg_43)">TutRes    Mail</text>
        <linearGradient y2="0.30669" y1="1.13684" x2="0.38737" x1="0.8444" id="svg_50">
            <stop stop-color="#c6d1ff" offset="0"/>
            <stop stop-color="#e6d5f4" offset="0.5834"/>
            <stop stop-color="#ffd9ec" offset="0.997"/>
        </linearGradient>
        <linearGradient y2="1" y1="0" x2="0.5" x1="0.5" id="svg_49">
            <stop stop-opacity="0" stop-color="#ff7eb8" offset="0.0028"/>
            <stop stop-opacity="0.6" stop-color="#ff7eb8" offset="1"/>
        </linearGradient>
        <g stroke="null" id="svg_84">
            <g stroke="null"
               transform="matrix(0.05774530154743892,0,0,0.056470166232796305,-267.0978691302662,-83.45367076354523) "
               id="svg_52">
                <g stroke="null" id="svg_53">
                    <path stroke="null" id="svg_54" fill="url(#svg_50)"
                          d="m6677.71536,1799.7047c-22.357,-56.888 -91.226,-91.003 -149.556,-68.427c-66.582,25.77 -44.506,131.673 -104.983,153.088c-32.669,11.568 -80.962,-31.644 -113.969,-38.271c-60.821,-12.21 -115.881,30.705 -129.439,90.134c-13.832,60.63 8.353,141.61 74.967,158.066c79.35,19.602 120.683,-51.729 187.249,-72.211c68.31,-21.019 144.263,28.622 200.814,-31.776c41.78,-44.62 57.055,-134.271 34.917,-190.603z"/>
                </g>
                <g stroke="null" id="svg_55">
                    <g stroke="null" id="svg_56">
                        <g stroke="null" id="svg_57">
                            <path stroke="null" id="svg_58" fill="#9fb0fe"
                                  d="m6608.02936,2035.8577l-352.375,0c-11.046,0 -20,-8.954 -20,-20l0,-221.41c0,-11.046 8.954,-20 20,-20l352.375,0c11.046,0 20,8.954 20,20l0,221.41c0,11.046 -8.954,20 -20,20z"/>
                            <g stroke="null" id="svg_59" fill="#8399fe">
                                <path stroke="null" id="svg_60"
                                      d="m6628.03236,1794.4527l0,84.5c-12.55,10.89 -28.93,17.49 -46.86,17.49c-39.5,0 -71.52,-32.02 -71.52,-71.51c0,-19.7 7.97,-37.55 20.86,-50.48l77.52,0c11.04,0 20,8.95 20,20z"/>
                                <path stroke="null" id="svg_61"
                                      d="m6628.03236,1794.4527l0,25.21l-177.91,136.67c-5.22,4.01 -11.71,6.21 -18.28,6.21s-13.06,-2.2 -18.28,-6.21l-177.91,-136.67l0,-25.21c0,-11.05 8.96,-20 20,-20l352.38,0c11.04,0 20,8.95 20,20z"/>
                                <path stroke="null" id="svg_62"
                                      d="m6437.93436,1869.8327l190.096,146.025c0,11.046 -8.954,20 -20,20l-352.376,0c-11.046,0 -20,-8.954 -20,-20l190.096,-146.025c3.593,-2.76 8.591,-2.76 12.184,0z"/>
                            </g>
                            <path stroke="null" id="svg_63" fill="#6583fe"
                                  d="m6500.33236,1917.7627l-50.21,38.57c-5.22,4.01 -11.71,6.21 -18.28,6.21s-13.06,-2.2 -18.28,-6.21l-50.21,-38.57l62.4,-47.93c3.59,-2.76 8.59,-2.76 12.18,0l62.4,47.93z"/>
                            <path stroke="null" id="svg_64" fill="#b7c5ff"
                                  d="m6425.75036,1940.4737l-190.096,-146.026c0,-11.046 8.954,-20 20,-20l352.375,0c11.046,0 20,8.954 20,20l-190.095,146.026c-3.593,2.759 -8.591,2.759 -12.184,0z"/>
                        </g>
                        <g stroke="null" id="svg_65">
                            <path stroke="null" id="svg_66" fill="#02ffb3"
                                  d="m6546.78936,2009.2467l-32.134,0c-2.762,0 -5,-2.238 -5,-5l0,-22.154c0,-2.761 2.238,-5 5,-5l32.134,0c2.762,0 5,2.239 5,5l0,22.154c0,2.762 -2.238,5 -5,5z"/>
                            <g stroke="null" id="svg_67">
                                <g stroke="null" id="svg_68">
                                    <g stroke="null" id="svg_69">
                                        <path stroke="null" id="svg_70" fill="#fff"
                                              d="m6487.71336,1988.8647l-27.833,0c-2.762,0 -5,-2.239 -5,-5s2.238,-5 5,-5l27.833,0c2.762,0 5,2.239 5,5s-2.238,5 -5,5z"/>
                                    </g>
                                </g>
                                <g stroke="null" id="svg_71">
                                    <g stroke="null" id="svg_72">
                                        <path stroke="null" id="svg_73" fill="#fff"
                                              d="m6487.71336,2009.2467l-97.833,0c-2.762,0 -5,-2.239 -5,-5s2.238,-5 5,-5l97.833,0c2.762,0 5,2.239 5,5c0,2.762 -2.238,5 -5,5z"/>
                                    </g>
                                </g>
                            </g>
                        </g>
                        <path stroke="null" id="svg_74" fill="url(#svg_49)"
                              d="m6608.02936,2035.8577l-352.375,0c-11.046,0 -20,-8.954 -20,-20l0,-221.41c0,-11.046 8.954,-20 20,-20l352.375,0c11.046,0 20,8.954 20,20l0,221.41c0,11.046 -8.954,20 -20,20z"/>
                        <g stroke="null" id="svg_75">
                            <ellipse stroke="null" id="svg_76"
                                     transform="matrix(0.16,-0.987,0.987,0.16,188.793,529.087) " ry="71.517" rx="71.517"
                                     fill="#ff5ba8" cy="6513.99814" cx="-231.40443"/>
                        </g>
                        <path stroke="null" id="svg_77" fill="#fff"
                              d="m6549.95636,1775.3257l10.206,24.389l-10.206,24.389c-1.733,4.142 2.448,8.292 6.577,6.528l61.619,-26.319c4.048,-1.729 4.048,-7.467 0,-9.196l-61.619,-26.319c-4.129,-1.764 -8.31,2.386 -6.577,6.528z"/>
                        <path stroke="null" id="svg_78" fill="#ffdbed"
                              d="m6583.44336,1804.3827l-30.725,13.13l7.442,-17.8l-7.451,-17.8l30.734,13.13c3.833,1.64 3.833,7.71 0,9.34z"/>
                    </g>
                    <path stroke="null" id="svg_79" fill="#00eca2"
                          d="m6506.67036,1727.7927c-3.714,0 -7.427,-1.413 -10.253,-4.24c-5.654,-5.654 -5.654,-14.853 0,-20.506c5.651,-5.652 14.852,-5.654 20.505,0c5.654,5.654 5.654,14.853 0,20.506c-2.826,2.827 -6.539,4.24 -10.252,4.24zm0,-18.991c-1.152,0 -2.305,0.438 -3.183,1.316c-1.754,1.754 -1.754,4.609 0,6.364c1.756,1.754 4.608,1.755 6.364,0c1.754,-1.754 1.754,-4.609 0,-6.364c-0.877,-0.877 -2.03,-1.316 -3.181,-1.316z"/>
                    <path stroke="null" id="svg_80" fill="#00eca2"
                          d="m6394.38036,2105.4367c-3.713,0 -7.427,-1.414 -10.253,-4.24c-5.654,-5.654 -5.654,-14.853 0,-20.506c5.652,-5.653 14.854,-5.653 20.506,0c5.654,5.654 5.654,14.853 0,20.506c-2.826,2.827 -6.54,4.24 -10.253,4.24zm0,-18.991c-1.152,0 -2.305,0.438 -3.183,1.316c-1.754,1.754 -1.754,4.609 0,6.364c1.756,1.755 4.609,1.755 6.365,0c1.754,-1.754 1.754,-4.609 0,-6.364c-0.877,-0.877 -2.03,-1.316 -3.182,-1.316z"/>
                    <path stroke="null" id="svg_81" fill="#ff7eb8"
                          d="m6470.62236,1740.6687c-1.279,0 -2.56,-0.488 -3.535,-1.464l-5.965,-5.964l-5.965,5.964c-1.951,1.952 -5.119,1.952 -7.07,0c-1.953,-1.953 -1.953,-5.119 0,-7.071l9.5,-9.5c1.951,-1.952 5.119,-1.952 7.07,0l9.5,9.5c1.953,1.953 1.953,5.119 0,7.071c-0.975,0.975 -2.255,1.464 -3.535,1.464z"/>
                    <path stroke="null" id="svg_82" fill="#ff7eb8"
                          d="m6615.58836,2086.4437c-1.279,0 -2.56,-0.488 -3.535,-1.464l-5.965,-5.964l-5.965,5.964c-1.951,1.952 -5.119,1.952 -7.07,0c-1.953,-1.953 -1.953,-5.119 0,-7.071l9.5,-9.5c1.951,-1.952 5.119,-1.952 7.07,0l9.5,9.5c1.953,1.953 1.953,5.119 0,7.071c-0.975,0.975 -2.256,1.464 -3.535,1.464z"/>
                    <path stroke="null" id="svg_83" fill="#6583fe"
                          d="m6354.72636,2091.1937c-1.279,0 -2.56,-0.488 -3.535,-1.464l-5.965,-5.964l-5.965,5.964c-1.951,1.952 -5.119,1.952 -7.07,0c-1.953,-1.953 -1.953,-5.119 0,-7.071l9.5,-9.5c1.951,-1.952 5.119,-1.952 7.07,0l9.5,9.5c1.953,1.953 1.953,5.119 0,7.071c-0.976,0.975 -2.256,1.464 -3.535,1.464z"/>
                </g>
            </g>
        </g>
    </g>
</svg>