<svg id="Capa_1" enable-background="new 0 0 512 512" height="512" viewBox="0 0 512 512" width="512"
     xmlns="http://www.w3.org/2000/svg">
    <g>
        <path d="m160.111 0c-12.42 0-24.196 2.73-34.782 7.607-3.776 1.74-8.065 2.05-12.077.959-3.566-.969-7.391-1.31-11.351-.891-14.264 1.513-25.739 13.059-27.159 27.333-.597 6.008.547 11.701 2.984 16.644 1.897 3.847 2.311 8.23 1.318 12.403-1.472 6.185-2.26 12.635-2.26 19.271v9.093c0 10.877 8.818 19.695 19.695 19.695h83.326v-92.419c.001-10.877-8.817-19.695-19.694-19.695z"
              fill="#4a80aa"/>
        <path d="m236.366 0c12.42 0 24.196 2.73 34.782 7.607 3.776 1.74 8.065 2.05 12.077.959 3.566-.969 7.391-1.31 11.351-.891 14.264 1.512 25.739 13.058 27.159 27.332.597 6.008-.547 11.701-2.984 16.644-1.897 3.847-2.311 8.23-1.318 12.403 1.472 6.185 2.26 12.635 2.26 19.271v9.093c0 10.877-8.818 19.695-19.695 19.695h-83.326v-92.418c-.001-10.877 8.817-19.695 19.694-19.695z"
              fill="#4a80aa"/>
        <path d="m335.93 504.388h-275.383c-5.041 0-9.128-4.087-9.128-9.128v-214.217c0-49.348 40.005-89.353 89.353-89.353h114.933c49.348 0 89.353 40.005 89.353 89.353v214.217c0 5.042-4.087 9.128-9.128 9.128z"
              fill="#80e29d"/>
        <path d="m255.705 191.69h-26.868c49.348 0 89.353 40.005 89.353 89.353v214.217c0 5.041-4.087 9.128-9.128 9.128h26.868c5.041 0 9.128-4.087 9.128-9.128v-214.217c0-49.348-40.005-89.353-89.353-89.353z"
              fill="#66b49d"/>
        <g>
            <path d="m198.239 512c-4.204 0-7.611-3.407-7.611-7.611v-237.031c0-4.204 3.407-7.611 7.611-7.611s7.611 3.407 7.611 7.611v237.031c0 4.204-3.407 7.611-7.611 7.611z"
                  fill="#66b49d"/>
        </g>
        <path d="m88.869 208.333 78.419 92.523c3.19 3.764 8.789 4.322 12.659 1.262l18.291-14.463-12.701-95.965h-44.765c-19.362 0-37.27 6.179-51.903 16.643z"
              fill="#fff6f4"/>
        <path d="m307.608 208.333-78.419 92.523c-3.19 3.764-8.789 4.322-12.659 1.262l-18.291-14.463 12.701-95.965h44.765c19.361 0 37.269 6.179 51.903 16.643z"
              fill="#fff6f4"/>
        <path d="m228.851 191.69c26.744.004 50.738 11.761 67.111 30.383l11.646-13.74c-28.567-20.429-53.549-16.3-78.757-16.643z"
              fill="#d8e2f1"/>
        <g>
            <g>
                <path d="m224.066 354.901c-4.204 0-7.611-3.407-7.611-7.612v-6.152c0-4.204 3.407-7.611 7.611-7.611s7.611 3.407 7.611 7.611v6.152c.001 4.205-3.407 7.612-7.611 7.612z"
                      fill="#fff6f4"/>
            </g>
            <g>
                <path d="m224.066 419.543c-4.204 0-7.611-3.407-7.611-7.612v-6.152c0-4.204 3.407-7.612 7.611-7.612s7.611 3.407 7.611 7.612v6.152c.001 4.205-3.407 7.612-7.611 7.612z"
                      fill="#fff6f4"/>
            </g>
            <g>
                <path d="m224.066 484.187c-4.204 0-7.611-3.407-7.611-7.612v-6.152c0-4.204 3.407-7.611 7.611-7.611s7.611 3.407 7.611 7.611v6.152c.001 4.204-3.407 7.612-7.611 7.612z"
                      fill="#fff6f4"/>
            </g>
        </g>
        <path d="m198.238 287.656 53.334-89.741h-106.668z" fill="#e2a770"/>
        <path d="m198.238 231.255c-50.138 0-90.783-40.645-90.783-90.783v-57.146c0-27.309 22.138-49.447 49.447-49.447h82.672c27.309 0 49.447 22.138 49.447 49.447v57.146c0 50.138-40.645 90.783-90.783 90.783z"
              fill="#f1d0a5"/>
        <path d="m239.574 33.879h-20.525c27.309 0 49.447 22.138 49.447 49.447v57.146c0 46.666-35.217 85.089-80.52 90.189 3.37.38 6.791.593 10.262.593 50.138 0 90.783-40.645 90.783-90.783v-57.145c0-27.308-22.138-49.447-49.447-49.447z"
              fill="#f1b986"/>
        <g>
            <g>
                <path d="m219.568 131.496h-42.658c-4.204 0-7.611-3.407-7.611-7.611s3.407-7.611 7.611-7.611h42.658c4.204 0 7.611 3.407 7.611 7.611 0 4.203-3.407 7.611-7.611 7.611z"
                      fill="#2b4d66"/>
            </g>
            <g>
                <path d="m141.849 131.496h-34.393c-4.204 0-7.611-3.407-7.611-7.611s3.407-7.611 7.611-7.611h34.393c4.204 0 7.611 3.407 7.611 7.611.001 4.203-3.407 7.611-7.611 7.611z"
                      fill="#2b4d66"/>
            </g>
            <g>
                <path d="m289.022 131.496h-34.393c-4.204 0-7.611-3.407-7.611-7.611s3.407-7.611 7.611-7.611h34.393c4.204 0 7.611 3.407 7.611 7.611 0 4.203-3.407 7.611-7.611 7.611z"
                      fill="#2b4d66"/>
            </g>
        </g>
        <circle cx="158.814" cy="123.884" fill="#d3effb" r="27.114"/>
        <circle cx="237.662" cy="123.884" fill="#d3effb" r="27.114"/>
        <path d="m237.662 96.77c-2.818 0-5.536.431-8.092 1.229 11.022 3.442 19.023 13.729 19.023 25.886s-8 22.444-19.023 25.886c2.556.798 5.273 1.229 8.092 1.229 14.975 0 27.114-12.139 27.114-27.114s-12.139-27.116-27.114-27.116z"
              fill="#b1e4f9"/>
        <path d="m158.814 96.77c-2.818 0-5.536.431-8.092 1.229 11.022 3.442 19.023 13.729 19.023 25.886s-8 22.444-19.023 25.886c2.556.798 5.273 1.229 8.092 1.229 14.975 0 27.114-12.139 27.114-27.114s-12.139-27.116-27.114-27.116z"
              fill="#b1e4f9"/>
        <g>
            <path d="m198.239 193.89c-7.296 0-14.589-1.92-21.834-5.762-3.714-1.97-5.127-6.577-3.158-10.291 1.969-3.713 6.576-5.128 10.291-3.158 9.889 5.247 19.505 5.247 29.4 0 3.713-1.97 8.321-.555 10.29 3.159s.556 8.321-3.159 10.29c-7.241 3.841-14.537 5.762-21.83 5.762z"
                  fill="#c63d4f"/>
        </g>
        <path d="m157.121 376.22h-66.344c-3.738 0-6.768-3.03-6.768-6.768v-18.47c0-3.738 3.03-6.768 6.768-6.768h66.343c3.738 0 6.768 3.03 6.768 6.768v18.47c.001 3.738-3.029 6.768-6.767 6.768z"
              fill="#fff6f4"/>
        <path d="m157.121 344.214h-20.335c3.738 0 6.768 3.03 6.768 6.768v18.47c0 3.738-3.03 6.768-6.768 6.768h20.335c3.738 0 6.768-3.03 6.768-6.768v-18.47c0-3.738-3.03-6.768-6.768-6.768z"
              fill="#d8e2f1"/>
        <path d="m449.778 418.432h-160.596c-5.967 0-10.804-4.837-10.804-10.804v-31.988c0-5.967 4.837-10.804 10.804-10.804h160.596c5.967 0 10.804 4.837 10.804 10.804v31.988c-.001 5.967-4.838 10.804-10.804 10.804z"
              fill="#9dc6fb"/>
        <path d="m449.778 364.837h-21.379c5.967 0 10.804 4.837 10.804 10.803v31.988c0 5.967-4.837 10.803-10.804 10.803h21.379c5.967 0 10.804-4.837 10.804-10.803v-31.988c-.001-5.966-4.838-10.803-10.804-10.803z"
              fill="#8993da"/>
        <path d="m449.778 472.027h-160.596c-5.967 0-10.804-4.837-10.804-10.804v-31.988c0-5.967 4.837-10.804 10.804-10.804h160.596c5.967 0 10.804 4.837 10.804 10.804v31.988c-.001 5.967-4.838 10.804-10.804 10.804z"
              fill="#dd636e"/>
        <path d="m449.778 418.432h-21.379c5.967 0 10.804 4.837 10.804 10.804v31.988c0 5.967-4.837 10.804-10.804 10.804h21.379c5.967 0 10.804-4.837 10.804-10.804v-31.988c-.001-5.967-4.838-10.804-10.804-10.804z"
              fill="#c63d4f"/>
    </g>
</svg>