<svg id="Layer_1" enable-background="new 0 0 510 510" height="512" viewBox="0 0 510 510" width="512"
     xmlns="http://www.w3.org/2000/svg">
    <g>
        <path d="m210 405v60l22.5 10 22.5-10 10-30-10-30-22.5-10z" fill="#37617a"/>
        <path d="m300 405-22.5-10-22.5 10v60l22.5 10 22.5-10c0-7.259 0-52.693 0-60z" fill="#254050"/>
        <path d="m120 465v30h135l10-15-10-15c-16.333 0-118.559 0-135 0z" fill="#447895"/>
        <path d="m390 465c-16.333 0-118.559 0-135 0v30h135c0-10.492 0-19.508 0-30z" fill="#37617a"/>
        <path d="m255 345 10-180-10-150h-255v330l120 15z" fill="#f9f9f9"/>
        <path d="m510 345v-330h-255v330l135 15z" fill="#e7f1f9"/>
        <path d="m165 255-30-.076.076-29.962h-71.251l70.315-120h31.238l-.228 90h14.85v30h-14.924zm-48.825-60.038h18.977l.082-32.524z"
              fill="#df666e"/>
        <path d="m431.554 104.962c-10.926 0-20.313 0-31.238 0-7.845 13.387-62.396 106.485-70.315 120h71.251c-.026 10.479-.05 19.483-.076 29.962 10.492.027 19.508.05 30 .076.026-10.506.05-19.532.076-30.038h14.924c0-10.492 0-19.508 0-30-5.193 0-9.655 0-14.849 0 .023-9.266.203-80.571.227-90zm-30.228 90c-6.637 0-12.34 0-18.977 0 1.37-2.339-5.73 9.777 19.059-32.526-.028 11.375-.054 21.15-.082 32.526z"
              fill="#cd4957"/>
        <path d="m240 209.962c0-7.259 0-52.692 0-60 0-8.27 6.729-15 15-15l10-15-10-15c-24.811 0-45 20.187-45 45v60c0 24.812 20.186 45 45 45l10-15-10-15c-4.136 0-7.886-1.683-10.602-4.398-2.715-2.716-4.398-6.466-4.398-10.602z"
              fill="#df666e"/>
        <path d="m300 209.962c0-7.259 0-52.692 0-60 0-24.812-20.186-45-45-45v30c8.271 0 15 6.729 15 15v60c0 8.271-6.728 15-15 15v30c12.406 0 23.656-5.047 31.805-13.195 8.148-8.149 13.195-19.399 13.195-31.805z"
              fill="#cd4957"/>
        <path d="m0 345v60h255l15-30-15-30z" fill="#447895"/>
        <path d="m510 405s0-54.754 0-60c-30.542 0-255 0-255 0v60z" fill="#37617a"/>
    </g>
</svg>