<svg id="Capa_1" enable-background="new 0 0 511.998 511.998" height="512" viewBox="0 0 511.998 511.998" width="512"
     xmlns="http://www.w3.org/2000/svg">
    <g>
        <g>
            <path d="m111.387 259.314c-2.378 0-4.789-.566-7.035-1.762-7.312-3.893-10.086-12.977-6.193-20.289l96.399-181.11c3.893-7.314 12.976-10.088 20.289-6.193 7.312 3.893 10.086 12.977 6.193 20.289l-96.399 181.11c-2.698 5.067-7.888 7.955-13.254 7.955z"
                  fill="#f2d231"/>
        </g>
        <g>
            <path d="m400.611 259.314c-5.366 0-10.557-2.888-13.254-7.955l-96.4-181.11c-3.893-7.312-1.119-16.396 6.193-20.289 7.312-3.896 16.397-1.12 20.289 6.193l96.4 181.11c3.893 7.312 1.119 16.396-6.193 20.289-2.245 1.195-4.657 1.762-7.035 1.762z"
                  fill="#e79d26"/>
        </g>
        <g>
            <g>
                <g>
                    <path d="m496.997 456.831c0 22.092-18.074 40.167-40.167 40.167h-401.664c-22.092 0-40.165-18.075-40.165-40.167v-172.353c0-22.092 18.073-40.167 40.165-40.167h401.664c22.093 0 40.167 18.075 40.167 40.167z"
                          fill="#8ee16a"/>
                    <path d="m456.83 244.311h-200.832v252.687h200.832c22.093 0 40.167-18.075 40.167-40.167v-172.353c0-22.092-18.074-40.167-40.167-40.167z"
                          fill="#6ebd6b"/>
                    <path d="m456.83 511.998h-401.664c-30.418 0-55.165-24.748-55.165-55.167v-172.353c0-30.419 24.747-55.167 55.165-55.167h401.664c30.42 0 55.167 24.748 55.167 55.167v172.353c0 30.419-24.747 55.167-55.167 55.167zm-401.664-252.688c-13.876 0-25.165 11.29-25.165 25.167v172.353c0 13.877 11.289 25.167 25.165 25.167h401.664c13.877 0 25.167-11.29 25.167-25.167v-172.352c0-13.877-11.29-25.167-25.167-25.167h-401.664z"
                          fill="#faf3f4"/>
                </g>
            </g>
            <path d="m255.998 0c-34.848 0-63.199 28.351-63.199 63.2 0 34.85 28.352 63.199 63.199 63.199 34.849 0 63.2-28.35 63.2-63.199s-28.351-63.2-63.2-63.2z"
                  fill="#bce9f8"/>
            <g>
                <g>
                    <path d="m115.267 388.901v-36.494c0-21.844 13.342-29.952 30.606-29.952 17.266 0 30.737 8.108 30.737 29.952v36.494c0 21.842-13.472 29.953-30.737 29.953s-30.606-8.111-30.606-29.953zm44.341-36.494c0-10.334-5.235-15.041-13.735-15.041-8.632 0-13.603 4.707-13.603 15.041v36.494c0 10.333 4.971 15.042 13.603 15.042 8.5 0 13.735-4.709 13.735-15.042z"
                          fill="#faf3f4"/>
                </g>
                <g>
                    <path d="m191.123 327.686c0-2.746 2.485-5.231 6.411-5.231h26.291c16.611 0 29.691 7.979 29.691 29.431v.784c0 21.448-13.476 29.69-30.74 29.69h-14.647v30.346c0 3.533-4.315 5.364-8.501 5.364-4.315 0-8.505-1.831-8.505-5.364zm17.006 9.68v31.654h14.647c8.504 0 13.735-4.838 13.735-15.041v-1.572c0-10.201-5.232-15.041-13.735-15.041z"
                          fill="#faf3f4"/>
                </g>
                <g>
                    <g>
                        <path d="m280.98 363.524h19.88c3.401 0 5.365 3.27 5.365 6.803 0 3.008-1.703 6.541-5.365 6.541h-19.88v26.289h37.017c3.398 0 5.362 3.533 5.362 7.586 0 3.533-1.702 7.327-5.362 7.327h-46.566c-3.793 0-7.455-1.831-7.455-5.364v-84.889c0-3.533 3.662-5.362 7.455-5.362h46.566c3.66 0 5.362 3.794 5.362 7.323 0 4.057-1.964 7.588-5.362 7.588h-37.017z"
                              fill="#daebeb"/>
                    </g>
                </g>
                <g>
                    <g>
                        <path d="m378.419 412.706-28.121-52.581v52.581c0 3.533-4.316 5.364-8.504 5.364-4.314 0-8.5-1.831-8.5-5.364v-84.889c0-3.662 4.186-5.362 8.5-5.362 6.15 0 8.637 1.308 12.691 9.025l25.242 48.789v-52.583c0-3.662 4.186-5.231 8.5-5.231 4.188 0 8.504 1.569 8.504 5.231v85.02c0 3.533-4.315 5.364-8.504 5.364-4.054 0-7.584-1.307-9.808-5.364z"
                              fill="#daebeb"/>
                    </g>
                </g>
            </g>
        </g>
        <path d="m456.83 229.311h-200.832v30h200.832c13.877 0 25.167 11.29 25.167 25.167v172.353c0 13.877-11.29 25.167-25.167 25.167h-200.832v30h200.832c30.42 0 55.167-24.748 55.167-55.167v-172.353c0-30.419-24.747-55.167-55.167-55.167z"
              fill="#daebeb"/>
        <path d="m319.198 63.2c0-34.849-28.352-63.2-63.2-63.2v126.399c34.849 0 63.2-28.349 63.2-63.199z"
              fill="#9ce0f6"/>
    </g>
</svg>