<svg id="Layer_1" enable-background="new 0 0 512 512" height="512" viewBox="0 0 512 512" width="512"
     xmlns="http://www.w3.org/2000/svg">
    <g>
        <g>
            <g>
                <g>
                    <g>
                        <path d="m320.88 497h-129.76l10.18-31.29 9.7-29.79h90z" fill="#aec9d6"/>
                        <path d="m320.88 497h-129.76l10.18-31.29h63.57c11.43 0 19.65-10.97 16.43-21.93l-2.3-7.86h22z"
                              fill="#8fb2bc"/>
                        <path d="m512 130.66v253.09l-27.44 2.14-228.56 17.86-256-20v-253.09l256-20 228.56 17.86z"
                              fill="#d9f9f8"/>
                        <path d="m512 130.66v253.09l-27.44 2.14v-257.37z" fill="#c1eaf4"/>
                        <path d="m512 383.75v46.87c0 7.07-5.73 12.8-12.8 12.8h-486.4c-7.07 0-12.8-5.73-12.8-12.8v-46.87z"
                              fill="#466175"/>
                        <path d="m512 83.79v46.87h-512v-46.87c0-7.07 5.73-12.8 12.8-12.8h486.4c7.07 0 12.8 5.73 12.8 12.8z"
                              fill="#466175"/>
                        <g fill="#2d4859">
                            <path d="m512 83.79v46.87h-27.44v-59.67h14.64c7.07 0 12.8 5.73 12.8 12.8z"/>
                            <path d="m484.56 383.75h27.44v46.87c0 7.07-5.73 12.8-12.8 12.8h-486.4c-7.07 0-12.8-5.73-12.8-12.8v-17.04h463.9c11.41 0 20.66-9.25 20.66-20.66z"/>
                        </g>
                        <path d="m361 500.55c0 6.32-5.13 11.45-11.46 11.45h-187.08c-3.16 0-6.03-1.28-8.1-3.36-2.08-2.07-3.36-4.93-3.36-8.09 0-1.26.13-2.48.37-3.67 1.69-8.48 9.19-14.87 18.17-14.87h172.92c5.12 0 9.76 2.07 13.11 5.43s5.43 7.99 5.43 13.11z"
                              fill="#466175"/>
                        <path d="m355.57 487.44c3.35 3.36 5.43 7.99 5.43 13.11 0 6.32-5.13 11.45-11.46 11.45h-187.08c-3.16 0-6.03-1.28-8.1-3.36-2.08-2.07-3.36-4.93-3.36-8.09 0-1.26.13-2.48.37-3.67h175.67c6.33 0 11.46-5.13 11.46-11.45 0-1.17-.11-2.31-.32-3.42h4.28c5.12 0 9.76 2.07 13.11 5.43z"
                              fill="#2d4859"/>
                    </g>
                </g>
            </g>
        </g>
        <path d="m448.5 7.5v260.96l-23.51 2.9-168.99 20.85-192.5-23.75v-260.96c0-4.14 3.36-7.5 7.5-7.5h370c4.14 0 7.5 3.36 7.5 7.5z"
              fill="#4fe8bc"/>
        <path d="m448.5 7.5v260.96l-23.51 2.9c.02-.23.02-.45.02-.68v-270.68h15.99c4.14 0 7.5 3.36 7.5 7.5z"
              fill="#17c6a5"/>
        <path d="m448.5 268.46v40c0 4.14-3.36 7.5-7.5 7.5h-370c-4.14 0-7.5-3.36-7.5-7.5v-40z" fill="#466175"/>
        <g fill="#fff">
            <path d="m160.862 109.217c4.142 0 7.5-3.357 7.5-7.5s-3.358-7.5-7.5-7.5h-39.201c-4.142 0-7.5 3.357-7.5 7.5v76.229c0 4.143 3.358 7.5 7.5 7.5h39.201c4.142 0 7.5-3.357 7.5-7.5s-3.358-7.5-7.5-7.5h-31.701v-23.114h31.701c4.142 0 7.5-3.357 7.5-7.5s-3.358-7.5-7.5-7.5h-31.701v-23.114h31.701z"/>
            <path d="m370.463 129.613c4.142 0 7.5-3.357 7.5-7.5s-3.358-7.5-7.5-7.5h-39.201c-4.142 0-7.5 3.357-7.5 7.5v56.132c0 4.143 3.358 7.5 7.5 7.5h39.201c4.142 0 7.5-3.357 7.5-7.5s-3.358-7.5-7.5-7.5h-31.701v-41.132z"/>
            <path d="m303.73 115.311c-3.045-1.033-6.406-.011-8.361 2.539l-22.056 28.765-22.055-28.765c-1.955-2.551-5.316-3.572-8.361-2.539-3.043 1.032-5.09 3.889-5.09 7.103v55.532c0 4.143 3.358 7.5 7.5 7.5s7.5-3.357 7.5-7.5v-33.425l14.555 18.983c1.419 1.852 3.619 2.937 5.952 2.937s4.532-1.085 5.952-2.937l14.556-18.983v33.425c0 4.143 3.358 7.5 7.5 7.5s7.5-3.357 7.5-7.5v-55.532c-.002-3.215-2.049-6.071-5.092-7.103z"/>
            <path d="m400.339 95.38c-4.142 0-7.5 3.357-7.5 7.5v18.935c0 4.143 3.358 7.5 7.5 7.5s7.5-3.357 7.5-7.5v-18.935c0-4.143-3.358-7.5-7.5-7.5z"/>
            <path d="m216.008 127.273h-25.848c-4.142 0-7.5 3.357-7.5 7.5s3.358 7.5 7.5 7.5h25.848c4.142 0 7.5-3.357 7.5-7.5s-3.358-7.5-7.5-7.5z"/>
            <path d="m216.008 157.388h-25.848c-4.142 0-7.5 3.357-7.5 7.5s3.358 7.5 7.5 7.5h25.848c4.142 0 7.5-3.357 7.5-7.5s-3.358-7.5-7.5-7.5z"/>
        </g>
        <path d="m448.5 268.46v40c0 4.14-3.36 7.5-7.5 7.5h-370c-4.14 0-7.5-3.36-7.5-7.5v-16.25h339.98c11.89 0 21.53-9.64 21.53-21.53v-2.22z"
              fill="#2d4859"/>
    </g>
</svg>