<?xml version="1.0" encoding="iso-8859-1"?>
<!-- Generator: Adobe Illustrator 19.0.0, SVG Export Plug-In . SVG Version: 6.00 Build 0)  -->
<svg version="1.1" id="Capa_1" xmlns="http://www.w3.org/2000/svg" xmlns:xlink="http://www.w3.org/1999/xlink" x="0px"
     y="0px"
     viewBox="0 0 512 512" style="enable-background:new 0 0 512 512;" xml:space="preserve">
<linearGradient id="SVGID_1_" gradientUnits="userSpaceOnUse" x1="109.059" y1="367.059" x2="402.941" y2="367.059"
                gradientTransform="matrix(1 0 0 -1 0 514)">
	<stop offset="0" style="stop-color:#80D8FF"/>
    <stop offset="0.16" style="stop-color:#88D1FF"/>
    <stop offset="0.413" style="stop-color:#9FBEFE"/>
    <stop offset="0.725" style="stop-color:#C4A0FD"/>
    <stop offset="1" style="stop-color:#EA80FC"/>
</linearGradient>
    <path style="fill:url(#SVGID_1_);" d="M256,293.882c-81.023,0-146.941-65.917-146.941-146.941C109.059,65.917,174.977,0,256,0
	s146.941,65.917,146.941,146.941C402.941,227.965,337.023,293.882,256,293.882z M256,40c-58.968,0-106.941,47.973-106.941,106.941
	S197.032,253.882,256,253.882s106.941-47.974,106.941-106.941S314.968,40,256,40z"/>
    <linearGradient id="SVGID_2_" gradientUnits="userSpaceOnUse" x1="70" y1="101.3195" x2="442" y2="101.3195"
                    gradientTransform="matrix(1 0 0 -1 0 514)">
	<stop offset="0" style="stop-color:#80D8FF"/>
        <stop offset="0.16" style="stop-color:#88D1FF"/>
        <stop offset="0.413" style="stop-color:#9FBEFE"/>
        <stop offset="0.725" style="stop-color:#C4A0FD"/>
        <stop offset="1" style="stop-color:#EA80FC"/>
</linearGradient>
    <path style="fill:url(#SVGID_2_);" d="M90,512c-5.305,0-10.392-2.107-14.143-5.858C72.107,502.391,70,497.304,70,492
	c0-98.502,80.137-178.639,178.639-178.639h14.723C361.863,313.361,442,393.498,442,492c0,11.046-8.954,20-20,20H90z M111.438,472
	h289.123c-9.721-67.006-67.543-118.639-137.2-118.639h-14.723C178.981,353.361,121.159,404.994,111.438,472z"/>
    <g>
</g>
    <g>
</g>
    <g>
</g>
    <g>
</g>
    <g>
</g>
    <g>
</g>
    <g>
</g>
    <g>
</g>
    <g>
</g>
    <g>
</g>
    <g>
</g>
    <g>
</g>
    <g>
</g>
    <g>
</g>
    <g>
</g>
</svg>
